<svg width="351px" height="28px" viewBox="0 0 351 28" version="1.1" xmlns="http://www.w3.org/2000/svg" xmlns:xlink="http://www.w3.org/1999/xlink">
    <g id="Page-1" stroke="none" stroke-width="1" fill="none" fill-rule="evenodd">
        <g id="mtc_01_fix" transform="translate(-252.000000, -566.000000)" fill="#121C3B">
            <g id="hero" transform="translate(250.000000, 81.000000)">
                <path d="M16.2285156,493.585938 C16.2285156,493.102862 16.0826838,492.697267 15.7910156,492.369141 C15.4993475,492.041014 15.1074243,491.876953 14.6152344,491.876953 C13.667313,491.876953 12.8515659,492.467116 12.1679688,493.647461 C11.4843716,494.827805 11.1425781,495.969396 11.1425781,497.072266 C11.1425781,497.737634 11.2952459,498.275389 11.6005859,498.685547 C11.905926,499.095705 12.3365858,499.300781 12.8925781,499.300781 C13.8678434,499.300781 14.6676401,498.560229 15.2919922,497.079102 C15.9163443,495.597974 16.2285156,494.433598 16.2285156,493.585938 Z M12.0175781,501.310547 C10.914708,501.310547 9.99642294,500.914066 9.26269531,500.121094 C8.52896769,499.328121 8.16210938,498.22071 8.16210938,496.798828 C8.16210938,495.14908 8.72265064,493.604174 9.84375,492.164062 C10.9648494,490.723951 12.3411377,490.003906 13.9726562,490.003906 C14.9296923,490.003906 15.6725234,490.268227 16.2011719,490.796875 C16.6022155,491.207033 16.8710931,491.67643 17.0078125,492.205078 L17.5,490.482422 L20.0839844,490.482422 L18.3339844,496.416016 C18.1972649,496.899091 18.0992842,497.256835 18.0400391,497.489258 C17.980794,497.721681 17.9511719,497.924478 17.9511719,498.097656 C17.9511719,498.371095 18.0423168,498.62858 18.2246094,498.870117 C18.406902,499.111655 18.6985657,499.232422 19.0996094,499.232422 C19.8834675,499.232422 20.6695924,498.719732 21.4580078,497.694336 C22.2464232,496.66894 22.640625,495.308602 22.640625,493.613281 C22.640625,491.106758 21.5651149,489.306646 19.4140625,488.212891 C18.0650974,487.520179 16.5475345,487.173828 14.8613281,487.173828 C11.7623543,487.173828 9.27409793,488.121735 7.39648438,490.017578 C5.7011634,491.731128 4.85351562,493.786446 4.85351562,496.183594 C4.85351562,498.845065 5.84699527,500.95507 7.83398438,502.513672 C9.59310775,503.889981 11.7395707,504.578125 14.2734375,504.578125 C16.005217,504.578125 17.6230394,504.259118 19.1269531,503.621094 C19.9472697,503.283852 20.7949175,502.805342 21.6699219,502.185547 L21.9980469,501.953125 L22.9960938,503.484375 C21.7018164,504.486984 20.3004633,505.250323 18.7919922,505.774414 C17.2835211,506.298505 15.7181071,506.560547 14.0957031,506.560547 C10.3131321,506.560547 7.38282289,505.384777 5.3046875,503.033203 C3.58202264,501.082673 2.72070312,498.772149 2.72070312,496.101562 C2.72070312,493.111964 3.7962132,490.578135 5.94726562,488.5 C8.20769359,486.303374 11.1015449,485.205078 14.6289063,485.205078 C17.5000144,485.205078 19.8788968,485.957024 21.765625,487.460938 C23.7526141,489.046883 24.7460938,491.152331 24.7460938,493.777344 C24.7460938,495.846365 24.1171938,497.621412 22.859375,499.102539 C21.6015562,500.583666 20.1660237,501.324219 18.5527344,501.324219 C17.7141885,501.324219 17.0693382,501.087242 16.6181641,500.613281 C16.1669899,500.139321 15.9414062,499.651695 15.9414062,499.150391 C15.9414062,499.086588 15.9436849,499.015951 15.9482422,498.938477 C15.9527995,498.861002 15.9596354,498.776693 15.96875,498.685547 C15.6223941,499.3418 15.2350282,499.865883 14.8066406,500.257812 C14.0318972,500.959639 13.102219,501.310547 12.0175781,501.310547 Z M33.6464844,489.347656 L33.6464844,494.761719 L38.4179688,494.761719 C39.3658902,494.761719 40.0768205,494.652345 40.5507812,494.433594 C41.3893271,494.050779 41.8085938,493.294276 41.8085938,492.164062 C41.8085938,490.942702 41.4029988,490.122398 40.5917969,489.703125 C40.1360654,489.466145 39.4524785,489.347656 38.5410156,489.347656 L33.6464844,489.347656 Z M39.4160156,485.847656 C40.8287831,485.875 41.9156863,486.048175 42.6767578,486.367188 C43.4378293,486.6862 44.0826796,487.155596 44.6113281,487.775391 C45.0488303,488.28581 45.395181,488.850908 45.6503906,489.470703 C45.9056002,490.090498 46.0332031,490.796871 46.0332031,491.589844 C46.0332031,492.54688 45.7916691,493.487951 45.3085938,494.413086 C44.8255184,495.338221 44.0280004,495.992186 42.9160156,496.375 C43.8457078,496.7487 44.5042298,497.279619 44.8916016,497.967773 C45.2789733,498.655928 45.4726562,499.706373 45.4726562,501.119141 L45.4726562,502.472656 C45.4726562,503.393234 45.5091142,504.017576 45.5820312,504.345703 C45.6914068,504.865237 45.9466126,505.248046 46.3476562,505.494141 L46.3476562,506 L41.7128906,506 C41.5852858,505.553383 41.4941409,505.193361 41.4394531,504.919922 C41.3300776,504.354815 41.2708334,503.776045 41.2617188,503.183594 L41.234375,501.310547 C41.2161457,500.025384 40.9814476,499.168622 40.5302734,498.740234 C40.0790993,498.311847 39.2337302,498.097656 37.9941406,498.097656 L33.6464844,498.097656 L33.6464844,506 L29.53125,506 L29.53125,485.847656 L39.4160156,485.847656 Z M56.0273438,503.251953 C57.1666724,503.251953 58.0416636,502.846358 58.6523438,502.035156 C59.2630239,501.223954 59.5683594,500.070971 59.5683594,498.576172 C59.5683594,497.081373 59.2630239,495.930668 58.6523438,495.124023 C58.0416636,494.317379 57.1666724,493.914062 56.0273438,493.914062 C54.8880151,493.914062 54.0107453,494.317379 53.3955078,495.124023 C52.7802704,495.930668 52.4726562,497.081373 52.4726562,498.576172 C52.4726562,500.070971 52.7802704,501.223954 53.3955078,502.035156 C54.0107453,502.846358 54.8880151,503.251953 56.0273438,503.251953 Z M63.65625,498.576172 C63.65625,500.763683 63.02735,502.634432 61.7695312,504.188477 C60.5117125,505.742521 58.6022263,506.519531 56.0410156,506.519531 C53.4798049,506.519531 51.5703188,505.742521 50.3125,504.188477 C49.0546812,502.634432 48.4257812,500.763683 48.4257812,498.576172 C48.4257812,496.425119 49.0546812,494.561206 50.3125,492.984375 C51.5703188,491.407544 53.4798049,490.619141 56.0410156,490.619141 C58.6022263,490.619141 60.5117125,491.407544 61.7695312,492.984375 C63.02735,494.561206 63.65625,496.425119 63.65625,498.576172 Z M76.7128906,498.548828 C76.7128906,497.400385 76.450849,496.384119 75.9267578,495.5 C75.4026667,494.615881 74.5527403,494.173828 73.3769531,494.173828 C71.9641856,494.173828 70.9934922,494.843743 70.4648438,496.183594 C70.1914049,496.894535 70.0546875,497.79687 70.0546875,498.890625 C70.0546875,500.622404 70.5149694,501.839189 71.4355469,502.541016 C71.9824246,502.951174 72.6295536,503.15625 73.3769531,503.15625 C74.461594,503.15625 75.2887341,502.736983 75.8583984,501.898438 C76.4280627,501.059892 76.7128906,499.943366 76.7128906,498.548828 Z M74.4980469,490.769531 C76.238941,490.769531 77.7132101,491.412103 78.9208984,492.697266 C80.1285868,493.982428 80.7324219,495.869128 80.7324219,498.357422 C80.7324219,500.982435 80.1422585,502.983066 78.9619141,504.359375 C77.7815696,505.735684 76.261728,506.423828 74.4023438,506.423828 C73.217442,506.423828 72.2330768,506.127607 71.4492188,505.535156 C71.0208312,505.20703 70.6015646,504.728519 70.1914062,504.099609 L70.1914062,511.865234 L66.3359375,511.865234 L66.3359375,491.097656 L70.0683594,491.097656 L70.0683594,493.298828 C70.4876323,492.651689 70.9342424,492.141278 71.4082031,491.767578 C72.2740929,491.10221 73.3040305,490.769531 74.4980469,490.769531 Z M93.8164062,498.548828 C93.8164062,497.400385 93.5543646,496.384119 93.0302734,495.5 C92.5061823,494.615881 91.6562559,494.173828 90.4804688,494.173828 C89.0677013,494.173828 88.0970079,494.843743 87.5683594,496.183594 C87.2949205,496.894535 87.1582031,497.79687 87.1582031,498.890625 C87.1582031,500.622404 87.618485,501.839189 88.5390625,502.541016 C89.0859402,502.951174 89.7330692,503.15625 90.4804688,503.15625 C91.5651096,503.15625 92.3922498,502.736983 92.9619141,501.898438 C93.5315784,501.059892 93.8164062,499.943366 93.8164062,498.548828 Z M91.6015625,490.769531 C93.3424566,490.769531 94.8167257,491.412103 96.0244141,492.697266 C97.2321024,493.982428 97.8359375,495.869128 97.8359375,498.357422 C97.8359375,500.982435 97.2457741,502.983066 96.0654297,504.359375 C94.8850852,505.735684 93.3652437,506.423828 91.5058594,506.423828 C90.3209576,506.423828 89.3365925,506.127607 88.5527344,505.535156 C88.1243468,505.20703 87.7050802,504.728519 87.2949219,504.099609 L87.2949219,511.865234 L83.4394531,511.865234 L83.4394531,491.097656 L87.171875,491.097656 L87.171875,493.298828 C87.5911479,492.651689 88.037758,492.141278 88.5117188,491.767578 C89.3776085,491.10221 90.4075461,490.769531 91.6015625,490.769531 Z M107.337891,503.251953 C108.477219,503.251953 109.35221,502.846358 109.962891,502.035156 C110.573571,501.223954 110.878906,500.070971 110.878906,498.576172 C110.878906,497.081373 110.573571,495.930668 109.962891,495.124023 C109.35221,494.317379 108.477219,493.914062 107.337891,493.914062 C106.198562,493.914062 105.321292,494.317379 104.706055,495.124023 C104.090817,495.930668 103.783203,497.081373 103.783203,498.576172 C103.783203,500.070971 104.090817,501.223954 104.706055,502.035156 C105.321292,502.846358 106.198562,503.251953 107.337891,503.251953 Z M114.966797,498.576172 C114.966797,500.763683 114.337897,502.634432 113.080078,504.188477 C111.822259,505.742521 109.912773,506.519531 107.351562,506.519531 C104.790352,506.519531 102.880866,505.742521 101.623047,504.188477 C100.365228,502.634432 99.7363281,500.763683 99.7363281,498.576172 C99.7363281,496.425119 100.365228,494.561206 101.623047,492.984375 C102.880866,491.407544 104.790352,490.619141 107.351562,490.619141 C109.912773,490.619141 111.822259,491.407544 113.080078,492.984375 C114.337897,494.561206 114.966797,496.425119 114.966797,498.576172 Z M126.013672,490.742188 C127.554044,490.742188 128.814123,491.145504 129.793945,491.952148 C130.773768,492.758793 131.263672,494.096345 131.263672,495.964844 L131.263672,506 L127.271484,506 L127.271484,496.935547 C127.271484,496.151689 127.166668,495.550132 126.957031,495.130859 C126.574217,494.365231 125.845057,493.982422 124.769531,493.982422 C123.44791,493.982422 122.541018,494.542963 122.048828,495.664062 C121.793619,496.256513 121.666016,497.013016 121.666016,497.933594 L121.666016,506 L117.783203,506 L117.783203,491.125 L121.542969,491.125 L121.542969,493.298828 C122.044273,492.533199 122.518227,491.981773 122.964844,491.644531 C123.766931,491.042966 124.783197,490.742188 126.013672,490.742188 Z M141.257812,502.800781 C142.169275,502.800781 142.93945,502.456709 143.568359,501.768555 C144.197269,501.0804 144.511719,499.984383 144.511719,498.480469 C144.511719,497.067701 144.213219,495.992191 143.616211,495.253906 C143.019203,494.515621 142.219406,494.146484 141.216797,494.146484 C139.849603,494.146484 138.906253,494.789056 138.386719,496.074219 C138.11328,496.757816 137.976562,497.600906 137.976562,498.603516 C137.976562,499.469405 138.122394,500.23958 138.414062,500.914062 C138.942711,502.171881 139.890618,502.800781 141.257812,502.800781 Z M140.287109,490.742188 C141.034509,490.742188 141.686195,490.856119 142.242188,491.083984 C143.190109,491.475913 143.955726,492.195958 144.539062,493.244141 L144.539062,491.097656 L148.326172,491.097656 L148.326172,505.234375 C148.326172,507.157562 148.002607,508.606766 147.355469,509.582031 C146.243484,511.259123 144.110693,512.097656 140.957031,512.097656 C139.052074,512.097656 137.498053,511.723962 136.294922,510.976562 C135.091791,510.229163 134.426433,509.112638 134.298828,507.626953 L138.537109,507.626953 C138.646485,508.082685 138.824218,508.410806 139.070312,508.611328 C139.489585,508.966799 140.195959,509.144531 141.189453,509.144531 C142.593106,509.144531 143.531899,508.675135 144.005859,507.736328 C144.315757,507.134763 144.470703,506.123054 144.470703,504.701172 L144.470703,503.744141 C144.097003,504.382165 143.695966,504.860675 143.267578,505.179688 C142.492835,505.772138 141.485683,506.068359 140.246094,506.068359 C138.332022,506.068359 136.803066,505.396166 135.65918,504.051758 C134.515294,502.70735 133.943359,500.88673 133.943359,498.589844 C133.943359,496.374989 134.494786,494.513354 135.597656,493.004883 C136.700526,491.496412 138.263662,490.742188 140.287109,490.742188 Z M155.96875,489.320312 L152.017578,489.320312 L152.017578,485.724609 L155.96875,485.724609 L155.96875,489.320312 Z M152.017578,491.097656 L155.96875,491.097656 L155.96875,506 L152.017578,506 L152.017578,491.097656 Z M173.345703,498.384766 L178.458984,498.384766 L175.943359,490.455078 L173.345703,498.384766 Z M173.605469,485.847656 L178.363281,485.847656 L185.5,506 L180.933594,506 L179.634766,501.857422 L172.210938,501.857422 L170.816406,506 L166.414062,506 L173.605469,485.847656 Z M196.642578,496.443359 C196.569661,495.887367 196.382814,495.38607 196.082031,494.939453 C195.644529,494.337888 194.965499,494.037109 194.044922,494.037109 C192.732415,494.037109 191.834638,494.688796 191.351562,495.992188 C191.096353,496.684899 190.96875,497.605463 190.96875,498.753906 C190.96875,499.847662 191.096353,500.72721 191.351562,501.392578 C191.816409,502.632168 192.6914,503.251953 193.976562,503.251953 C194.888025,503.251953 195.535154,503.005862 195.917969,502.513672 C196.300783,502.021482 196.533203,501.383467 196.615234,500.599609 L200.59375,500.599609 C200.502604,501.784511 200.074223,502.905594 199.308594,503.962891 C198.087233,505.667326 196.278007,506.519531 193.880859,506.519531 C191.483712,506.519531 189.720058,505.808601 188.589844,504.386719 C187.45963,502.964837 186.894531,501.119152 186.894531,498.849609 C186.894531,496.288399 187.518874,494.296882 188.767578,492.875 C190.016282,491.453118 191.738921,490.742188 193.935547,490.742188 C195.804046,490.742188 197.333002,491.161454 198.522461,492 C199.71192,492.838546 200.416015,494.319651 200.634766,496.443359 L196.642578,496.443359 Z M211.53125,498.753906 C211.285155,498.908855 211.036785,499.034179 210.786133,499.129883 C210.535481,499.225586 210.191408,499.314453 209.753906,499.396484 L208.878906,499.560547 C208.05859,499.706381 207.470705,499.884114 207.115234,500.09375 C206.513669,500.449221 206.212891,501.000647 206.212891,501.748047 C206.212891,502.413415 206.397459,502.894204 206.766602,503.19043 C207.135744,503.486655 207.584633,503.634766 208.113281,503.634766 C208.951827,503.634766 209.72428,503.388674 210.430664,502.896484 C211.137048,502.404294 211.503906,501.506517 211.53125,500.203125 L211.53125,498.753906 Z M209.166016,496.935547 C209.886071,496.844401 210.40104,496.730469 210.710938,496.59375 C211.26693,496.35677 211.544922,495.987633 211.544922,495.486328 C211.544922,494.875648 211.33301,494.454103 210.90918,494.22168 C210.485349,493.989257 209.863285,493.873047 209.042969,493.873047 C208.122391,493.873047 207.470705,494.100909 207.087891,494.556641 C206.814452,494.893882 206.632162,495.349607 206.541016,495.923828 L202.78125,495.923828 C202.863282,494.620436 203.227861,493.549483 203.875,492.710938 C204.904953,491.398431 206.673165,490.742188 209.179688,490.742188 C210.811206,490.742188 212.26041,491.065752 213.527344,491.712891 C214.794277,492.360029 215.427734,493.581371 215.427734,495.376953 L215.427734,502.212891 C215.427734,502.686851 215.436849,503.261064 215.455078,503.935547 C215.482422,504.445966 215.559895,504.792317 215.6875,504.974609 C215.815105,505.156902 216.006509,505.307291 216.261719,505.425781 L216.261719,506 L212.023438,506 C211.904947,505.699217 211.822917,505.416668 211.777344,505.152344 C211.731771,504.88802 211.695313,504.587241 211.667969,504.25 C211.130206,504.833336 210.51042,505.330076 209.808594,505.740234 C208.970048,506.22331 208.022141,506.464844 206.964844,506.464844 C205.615879,506.464844 204.501632,506.079756 203.62207,505.30957 C202.742509,504.539384 202.302734,503.447924 202.302734,502.035156 C202.302734,500.203116 203.009108,498.876957 204.421875,498.056641 C205.196618,497.610024 206.33593,497.291017 207.839844,497.099609 L209.166016,496.935547 Z M224.382812,490.742188 C225.285161,490.742188 226.087236,490.940428 226.789062,491.336914 C227.490889,491.7334 228.060545,492.282549 228.498047,492.984375 L228.498047,485.875 L232.449219,485.875 L232.449219,506 L228.662109,506 L228.662109,503.935547 C228.106117,504.819666 227.47266,505.462238 226.761719,505.863281 C226.050778,506.264325 225.166672,506.464844 224.109375,506.464844 C222.368481,506.464844 220.903326,505.760749 219.713867,504.352539 C218.524408,502.944329 217.929688,501.137381 217.929688,498.931641 C217.929688,496.388659 218.515294,494.388028 219.686523,492.929688 C220.857753,491.471347 222.423167,490.742188 224.382812,490.742188 Z M225.230469,503.183594 C226.333339,503.183594 227.171872,502.773442 227.746094,501.953125 C228.320315,501.132808 228.607422,500.07097 228.607422,498.767578 C228.607422,496.944652 228.14714,495.64128 227.226562,494.857422 C226.661456,494.383461 226.005212,494.146484 225.257812,494.146484 C224.118484,494.146484 223.282229,494.577144 222.749023,495.438477 C222.215818,496.299809 221.949219,497.368483 221.949219,498.644531 C221.949219,500.02084 222.220375,501.121415 222.762695,501.946289 C223.305016,502.771163 224.127599,503.183594 225.230469,503.183594 Z M241.869141,493.914062 C240.966792,493.914062 240.267255,494.196612 239.770508,494.761719 C239.273761,495.326826 238.961589,496.092443 238.833984,497.058594 L244.890625,497.058594 C244.826823,496.028641 244.514651,495.247073 243.954102,494.713867 C243.393552,494.180661 242.698572,493.914062 241.869141,493.914062 Z M241.869141,490.701172 C243.10873,490.701172 244.225255,490.933591 245.21875,491.398438 C246.212245,491.863284 247.032549,492.597 247.679688,493.599609 C248.263024,494.483728 248.641275,495.509109 248.814453,496.675781 C248.914714,497.359378 248.955729,498.343744 248.9375,499.628906 L238.738281,499.628906 C238.792969,501.123705 239.262365,502.171872 240.146484,502.773438 C240.684247,503.147137 241.331376,503.333984 242.087891,503.333984 C242.889978,503.333984 243.541664,503.106122 244.042969,502.650391 C244.316408,502.404296 244.557942,502.062502 244.767578,501.625 L248.746094,501.625 C248.645833,502.509119 248.185551,503.406896 247.365234,504.318359 C246.089186,505.767585 244.302746,506.492188 242.005859,506.492188 C240.110017,506.492188 238.437507,505.881517 236.988281,504.660156 C235.539055,503.438796 234.814453,501.451837 234.814453,498.699219 C234.814453,496.119779 235.468418,494.141934 236.776367,492.765625 C238.084316,491.389316 239.781891,490.701172 241.869141,490.701172 Z M268.214844,490.769531 C268.871097,490.769531 269.518226,490.897134 270.15625,491.152344 C270.794274,491.407553 271.373044,491.854163 271.892578,492.492188 C272.311851,493.011721 272.5944,493.649736 272.740234,494.40625 C272.831381,494.907555 272.876953,495.641271 272.876953,496.607422 L272.849609,506 L268.857422,506 L268.857422,496.511719 C268.857422,495.946612 268.766277,495.481773 268.583984,495.117188 C268.237628,494.424476 267.599614,494.078125 266.669922,494.078125 C265.594396,494.078125 264.851565,494.524735 264.441406,495.417969 C264.23177,495.891929 264.126953,496.461585 264.126953,497.126953 L264.126953,506 L260.203125,506 L260.203125,497.126953 C260.203125,496.242834 260.11198,495.600262 259.929688,495.199219 C259.601561,494.479163 258.958989,494.119141 258.001953,494.119141 C256.889968,494.119141 256.14258,494.479163 255.759766,495.199219 C255.550129,495.609377 255.445312,496.220048 255.445312,497.03125 L255.445312,506 L251.494141,506 L251.494141,491.125 L255.28125,491.125 L255.28125,493.298828 C255.764325,492.524085 256.22005,491.972658 256.648438,491.644531 C257.404952,491.061195 258.38476,490.769531 259.587891,490.769531 C260.727219,490.769531 261.647783,491.02018 262.349609,491.521484 C262.914716,491.98633 263.343097,492.58333 263.634766,493.3125 C264.145185,492.437496 264.778642,491.794924 265.535156,491.384766 C266.337244,490.974607 267.230464,490.769531 268.214844,490.769531 Z M277.060547,508.857422 L277.552734,508.884766 C277.935549,508.902995 278.300128,508.889323 278.646484,508.84375 C278.99284,508.798177 279.284504,508.69336 279.521484,508.529297 C279.74935,508.374348 279.961262,508.050784 280.157227,507.558594 C280.353191,507.066404 280.432943,506.765626 280.396484,506.65625 L274.927734,491.097656 L279.261719,491.097656 L282.515625,502.089844 L285.591797,491.097656 L289.734375,491.097656 L284.621094,505.753906 C283.636714,508.579441 282.857425,510.331702 282.283203,511.010742 C281.708982,511.689782 280.560555,512.029297 278.837891,512.029297 C278.491535,512.029297 278.213543,512.027018 278.003906,512.022461 C277.79427,512.017904 277.47982,512.001953 277.060547,511.974609 L277.060547,508.857422 Z M308.027344,490.714844 C308.947921,490.714844 309.784176,490.874347 310.536133,491.193359 C311.28809,491.512371 311.905597,491.999997 312.388672,492.65625 C312.79883,493.212242 313.049479,493.784177 313.140625,494.37207 C313.231771,494.959964 313.277344,495.919264 313.277344,497.25 L313.277344,506 L309.298828,506 L309.298828,496.935547 C309.298828,496.13346 309.162111,495.486331 308.888672,494.994141 C308.533201,494.301429 307.858729,493.955078 306.865234,493.955078 C305.835281,493.955078 305.053714,494.29915 304.520508,494.987305 C303.987302,495.675459 303.720703,496.657546 303.720703,497.933594 L303.720703,506 L299.837891,506 L299.837891,485.916016 L303.720703,485.916016 L303.720703,493.039062 C304.28581,492.173173 304.939775,491.569338 305.682617,491.227539 C306.425459,490.88574 307.207027,490.714844 308.027344,490.714844 Z M320.919922,489.320312 L316.96875,489.320312 L316.96875,485.724609 L320.919922,485.724609 L320.919922,489.320312 Z M316.96875,491.097656 L320.919922,491.097656 L320.919922,506 L316.96875,506 L316.96875,491.097656 Z M328.671875,506 L324.775391,506 L324.775391,485.847656 L328.671875,485.847656 L328.671875,506 Z M336.451172,506 L332.554688,506 L332.554688,485.847656 L336.451172,485.847656 L336.451172,506 Z M343.287109,501.242188 C343.369141,501.934899 343.546874,502.427082 343.820312,502.71875 C344.303388,503.238284 345.196608,503.498047 346.5,503.498047 C347.265629,503.498047 347.874021,503.384116 348.325195,503.15625 C348.776369,502.928384 349.001953,502.586591 349.001953,502.130859 C349.001953,501.693357 348.819663,501.360678 348.455078,501.132812 C348.090493,500.904947 346.736991,500.513024 344.394531,499.957031 C342.708325,499.537758 341.518884,499.013675 340.826172,498.384766 C340.13346,497.764971 339.787109,496.871751 339.787109,495.705078 C339.787109,494.328769 340.327143,493.146164 341.407227,492.157227 C342.48731,491.168289 344.007152,490.673828 345.966797,490.673828 C347.826181,490.673828 349.341465,491.045244 350.512695,491.788086 C351.683925,492.530928 352.356119,493.813793 352.529297,495.636719 L348.632812,495.636719 C348.578125,495.135414 348.43685,494.738934 348.208984,494.447266 C347.780597,493.918617 347.051437,493.654297 346.021484,493.654297 C345.173824,493.654297 344.569989,493.786457 344.209961,494.050781 C343.849933,494.315105 343.669922,494.624998 343.669922,494.980469 C343.669922,495.427086 343.861326,495.75065 344.244141,495.951172 C344.626955,496.160808 345.980457,496.520831 348.304688,497.03125 C349.854174,497.395835 351.016272,497.947262 351.791016,498.685547 C352.556644,499.432946 352.939453,500.367182 352.939453,501.488281 C352.939453,502.964851 352.390305,504.170243 351.291992,505.104492 C350.193679,506.038742 348.496105,506.505859 346.199219,506.505859 C343.856759,506.505859 342.127284,506.011398 341.010742,505.022461 C339.8942,504.033524 339.335938,502.773445 339.335938,501.242188 L343.287109,501.242188 Z" id="@Roppongi-Academy-hi"></path>
            </g>
        </g>
    </g>
</svg>
