<?xml version="1.0" encoding="UTF-8"?>
<svg width="28px" height="23px" viewBox="0 0 28 23" version="1.1" xmlns="http://www.w3.org/2000/svg" xmlns:xlink="http://www.w3.org/1999/xlink">
    <!-- Generator: Sketch 51.1 (57501) - http://www.bohemiancoding.com/sketch -->
    <title>icon_tw</title>
    <desc>Created with Sketch.</desc>
    <defs></defs>
    <g id="Page-1" stroke="none" stroke-width="1" fill="none" fill-rule="evenodd">
        <g id="mtc_01_fix" transform="translate(-453.000000, -788.000000)" fill="#FFFFFF">
            <g id="button" transform="translate(250.000000, 769.000000)">
                <path d="M211.805888,41.7027027 C222.372304,41.7027027 228.150608,32.9691491 228.150608,25.3961064 C228.150608,25.1479363 228.145568,24.9008836 228.134256,24.6551718 C229.255824,23.8463004 230.230784,22.8369711 231,21.6877458 C229.97072,22.1438603 228.862928,22.4513632 227.70104,22.5900301 C228.887008,21.8806056 229.79768,20.7578622 230.227088,19.4196879 C229.116832,20.0761486 227.887968,20.5537168 226.579472,20.8107142 C225.531152,19.6967981 224.038192,19 222.386192,19 C219.213456,19 216.640704,21.5667335 216.640704,24.7308184 C216.640704,25.1806756 216.691216,25.6179063 216.789776,26.0375942 C212.015552,25.7981397 207.78184,23.5173437 204.948912,20.0496667 C204.455104,20.8964173 204.170848,21.8806056 204.170848,22.9302723 C204.170848,24.9186499 205.18512,26.6739421 206.727248,27.7008143 C205.784992,27.6718742 204.899632,27.4135359 204.125376,26.9837916 C204.124144,27.0078153 204.124144,27.0317272 204.124144,27.0568683 C204.124144,29.832887 206.104528,32.1501096 208.732944,32.6756134 C208.250448,32.8065704 207.742752,32.8771888 207.218592,32.8771888 C206.848432,32.8771888 206.488464,32.8406504 206.138688,32.7738311 C206.869936,35.050828 208.990544,36.7077908 211.50528,36.7544973 C209.538672,38.2917886 207.061904,39.2078167 204.370432,39.2078167 C203.906864,39.2078167 203.44968,39.1813348 203,39.128371 C205.542512,40.7539354 208.561136,41.7027027 211.805888,41.7027027" id="icon_tw"></path>
            </g>
        </g>
    </g>
</svg>