<?xml version="1.0" encoding="utf-8"?>
<!-- Generator: Adobe Illustrator 21.1.0, SVG Export Plug-In . SVG Version: 6.00 Build 0)  -->
<svg version="1.1" id="レイヤー_1" xmlns="http://www.w3.org/2000/svg" xmlns:xlink="http://www.w3.org/1999/xlink" x="0px"
	 y="0px" viewBox="0 0 309.7 327.6" style="enable-background:new 0 0 309.7 327.6;" xml:space="preserve">
<style type="text/css">
	.st0{fill:#FFFFFF;}
</style>
<polygon id="Fill-1_7_" class="st0" points="304,111.8 304,111.8 304,158.8 257,158.8 251.4,164.4 309.7,164.4 309.7,106.1 "/>
<polygon id="Fill-2_3_" class="st0" points="0,105 0,163.4 5.6,157.7 5.5,157.7 5.5,110.7 52.6,110.7 58.3,105 "/>
<path class="st0" d="M8.5,113.5v42.4h292.8v-42.4H8.5z M181.8,121h10l-8.3,12.7l-5-7.3L181.8,121z M92.8,149.2h-8.1v-25.5l8.1,13.4
	V149.2z M101.6,149.2L84.7,121h9.8l17,28.2H101.6z M111.5,146.5l-8.1-13.5v-12h8.1V146.5z M135.6,149.2h-9.3V121h9.3v11.2h8.9v5.4
	h-8.9V149.2z M151.6,149.2H137v-5.6h5.2v-2.8h9.3V149.2z M151.6,129.2h-8.7v-2.7H137V121h14.5V129.2z M173.5,149.2h-10.6l8.9-13.1
	l5,7.6L173.5,149.2z M182,149.2L163.4,121h10l18.7,28.2H182z M219.5,149.2h-9.7v-20.6h9.7V149.2z M226.8,127.2h-24.2V121h24.2V127.2
	z"/>
<polygon id="Fill-4_5_" class="st0" points="47.3,180.3 47.3,214.9 16.6,214.9 0,230.7 0,258.8 25.9,258.8 25.9,231.1 57.6,231.1 
	73.2,215.4 73.2,196 57.6,180.3 "/>
<polygon id="Fill-5_5_" class="st0" points="15.7,180.3 0,195.9 0,205.8 26.1,205.8 26.1,194.4 43.5,194.4 43.5,180.3 "/>
<polygon id="Fill-6_5_" class="st0" points="30.7,258.8 74.2,258.8 74.2,245 30.7,245 "/>
<polygon id="Fill-7_5_" class="st0" points="103.7,180.3 88,196 88,243.1 103.7,258.8 114.1,258.8 114.1,196 133.6,196 133.6,180.3 
	"/>
<polygon id="Fill-8_5_" class="st0" points="137.3,180.3 137.3,243.1 117.7,243.1 117.7,258.8 147.7,258.8 163.3,243.1 163.3,196 
	147.7,180.3 "/>
<polygon id="Fill-9_5_" class="st0" points="179.2,188.2 187.1,180.3 218.5,180.3 218.5,239.7 192.3,239.7 192.3,196 179.2,196 "/>
<polygon id="Fill-10_3_" class="st0" points="179.2,259.9 231.2,259.9 231.2,244 179.2,244 "/>
<polygon id="Fill-11_7_" class="st0" points="246.4,180.3 238.6,188.2 238.6,207.9 264.4,207.9 264.4,196 309.7,196 309.7,180.3 "/>
<polygon id="Fill-12_3_" class="st0" points="282.8,200.5 256.7,258.8 284.1,258.8 307.6,200.5 "/>
<polygon id="Fill-13_5_" class="st0" points="134.7,19.1 211.1,19.1 211.1,0 134.7,0 "/>
<polygon id="Fill-14_5_" class="st0" points="158,89.1 188.8,89.1 188.8,24.4 158,24.4 "/>
<polygon id="Fill-15_5_" class="st0" points="243.8,0 225.9,17.8 225.9,71.3 243.8,89.1 255.6,89.1 255.6,0 "/>
<polygon id="Fill-16_5_" class="st0" points="260.9,0 260.9,18 280.4,18 280.4,36.1 309.7,36.1 309.7,18 292.1,0 "/>
<polygon id="Fill-17_5_" class="st0" points="280.4,58.3 280.4,71.3 260.9,71.3 260.9,89.1 292.1,89.1 309.7,71.3 309.7,58.3 "/>
<polygon id="Fill-18_3_" class="st0" points="43.2,0 33.9,9.4 33.9,17.8 45.9,17.8 45.9,89.1 75.3,89.1 75.3,9.5 65.9,0 "/>
<polygon id="Fill-19_5_" class="st0" points="89.6,0 80.6,9.5 80.6,17.8 92.6,17.8 92.6,89.1 122,89.1 122,14.6 107.6,0 "/>
<polygon id="Fill-20_3_" class="st0" points="14.5,0 0,14.6 0,89.1 29.7,89.1 29.7,17.8 29.7,0 "/>
<path class="st0" d="M0.1,323.4c2.6-2.3,4.3-4.2,4.3-5.7c0-0.9-0.5-1.5-1.3-1.5c-0.7,0-1.3,0.5-1.7,1L0,315.9c1-1.1,2-1.6,3.4-1.6
	c2,0,3.4,1.3,3.4,3.2c0,1.8-1.5,3.7-3.1,5.3c0.5-0.1,1.2-0.1,1.7-0.1h1.9v2.1H0.1V323.4z"/>
<path class="st0" d="M9.9,319.6c0-3.6,1.5-5.3,3.6-5.3c2.2,0,3.7,1.8,3.7,5.3c0,3.6-1.5,5.4-3.7,5.4C11.4,325,9.9,323.2,9.9,319.6z
	 M14.9,319.6c0-2.8-0.6-3.4-1.3-3.4c-0.7,0-1.3,0.6-1.3,3.4c0,2.8,0.6,3.5,1.3,3.5C14.3,323.1,14.9,322.5,14.9,319.6z"/>
<path class="st0" d="M20.3,322.9h2.2V317h-1.9v-1.5c1.1-0.2,1.8-0.5,2.6-0.9H25v8.3h1.9v2h-6.5V322.9z"/>
<path class="st0" d="M34.2,316.6h-4.4v-2.1h7.1v1.5c-2.4,2.8-2.6,4.8-2.8,8.8h-2.5C31.7,321.4,32.3,319.3,34.2,316.6z"/>
<path class="st0" d="M39.9,323.5c0-0.8,0.6-1.5,1.5-1.5c0.8,0,1.5,0.7,1.5,1.5c0,0.9-0.6,1.5-1.5,1.5
	C40.5,325,39.9,324.4,39.9,323.5z"/>
<path class="st0" d="M47.1,322.3c0.3,0.4,1,0.7,1.6,0.7c1.1,0,1.9-0.7,2-3c-0.5,0.7-1.4,1-2,1c-1.7,0-3-1-3-3.2
	c0-2.2,1.6-3.5,3.4-3.5c2,0,3.9,1.5,3.9,5.2c0,3.7-2,5.5-4.1,5.5c-1.4,0-2.4-0.6-3-1.2L47.1,322.3z M50.6,318.4
	c-0.2-1.7-0.9-2.2-1.5-2.2c-0.7,0-1.2,0.5-1.2,1.7c0,1.1,0.6,1.5,1.2,1.5C49.7,319.3,50.2,319.1,50.6,318.4z"/>
<path class="st0" d="M56,323.5c0-0.8,0.6-1.5,1.5-1.5c0.8,0,1.5,0.7,1.5,1.5c0,0.9-0.6,1.5-1.5,1.5C56.6,325,56,324.4,56,323.5z"/>
<path class="st0" d="M61.6,323.6l1.1-1.6c0.6,0.6,1.3,1,2.2,1c1,0,1.6-0.4,1.6-1.2c0-0.9-0.5-1.4-2.6-1.4v-1.7
	c1.8,0,2.3-0.5,2.3-1.4c0-0.7-0.4-1.1-1.2-1.1c-0.7,0-1.2,0.3-1.8,0.9l-1.2-1.5c1-0.8,2-1.3,3.2-1.3c2.1,0,3.5,1,3.5,2.8
	c0,1-0.6,1.8-1.7,2.3v0.1c1.2,0.3,2,1.2,2,2.5c0,1.9-1.8,3-3.8,3C63.5,325,62.3,324.5,61.6,323.6z"/>
<path class="st0" d="M71.7,319.6c0-3.6,1.5-5.3,3.6-5.3c2.2,0,3.7,1.8,3.7,5.3c0,3.6-1.5,5.4-3.7,5.4
	C73.1,325,71.7,323.2,71.7,319.6z M76.6,319.6c0-2.8-0.6-3.4-1.3-3.4c-0.7,0-1.3,0.6-1.3,3.4c0,2.8,0.6,3.5,1.3,3.5
	C76,323.1,76.6,322.5,76.6,319.6z"/>
<path class="st0" d="M86,323.6l1.4-1.7c0.7,0.6,1.7,1.1,2.5,1.1c0.9,0,1.3-0.3,1.3-0.9c0-0.6-0.6-0.8-1.5-1.2l-1.3-0.6
	c-1.1-0.4-2.1-1.3-2.1-2.8c0-1.7,1.6-3.1,3.7-3.1c1.2,0,2.5,0.5,3.4,1.4l-1.2,1.6c-0.7-0.5-1.3-0.8-2.1-0.8c-0.8,0-1.2,0.3-1.2,0.9
	c0,0.6,0.7,0.8,1.6,1.2l1.3,0.5c1.3,0.5,2,1.4,2,2.8c0,1.7-1.4,3.2-3.9,3.2C88.5,325,87.1,324.5,86,323.6z"/>
<path class="st0" d="M101.8,322.5h-3.1l-0.6,2.4h-2.5l3.2-10.3h3l3.2,10.3h-2.6L101.8,322.5z M101.3,320.6l-0.2-0.9
	c-0.3-1-0.5-2.3-0.8-3.3h-0.1c-0.3,1.1-0.5,2.3-0.8,3.3l-0.2,0.9H101.3z"/>
<path class="st0" d="M108.3,316.6h-2.8v-2.1h8.1v2.1h-2.8v8.3h-2.5V316.6z"/>
<path class="st0" d="M114.5,323.5c0-0.8,0.6-1.5,1.5-1.5c0.8,0,1.5,0.7,1.5,1.5c0,0.9-0.6,1.5-1.5,1.5
	C115.1,325,114.5,324.4,114.5,323.5z"/>
<path class="st0" d="M125.4,322.9h2.2V317h-1.9v-1.5c1.1-0.2,1.8-0.5,2.6-0.9h1.8v8.3h1.9v2h-6.5V322.9z"/>
<path class="st0" d="M134.5,323.6l1.1-1.6c0.6,0.6,1.3,1,2.2,1c1,0,1.6-0.4,1.6-1.2c0-0.9-0.5-1.4-2.6-1.4v-1.7
	c1.8,0,2.3-0.5,2.3-1.4c0-0.7-0.4-1.1-1.2-1.1c-0.7,0-1.2,0.3-1.8,0.9l-1.2-1.5c1-0.8,2-1.3,3.2-1.3c2.1,0,3.5,1,3.5,2.8
	c0,1-0.6,1.8-1.7,2.3v0.1c1.2,0.3,2,1.2,2,2.5c0,1.9-1.8,3-3.8,3C136.4,325,135.3,324.5,134.5,323.6z"/>
<path class="st0" d="M145,318.4c0-0.9,0.6-1.5,1.5-1.5c0.8,0,1.5,0.7,1.5,1.5c0,0.9-0.6,1.5-1.5,1.5C145.6,320,145,319.3,145,318.4z
	 M145,323.5c0-0.8,0.6-1.5,1.5-1.5c0.8,0,1.5,0.7,1.5,1.5c0,0.9-0.6,1.5-1.5,1.5C145.6,325,145,324.4,145,323.5z"/>
<path class="st0" d="M150.8,319.6c0-3.6,1.5-5.3,3.6-5.3c2.2,0,3.7,1.8,3.7,5.3c0,3.6-1.5,5.4-3.7,5.4
	C152.3,325,150.8,323.2,150.8,319.6z M155.8,319.6c0-2.8-0.6-3.4-1.3-3.4c-0.7,0-1.3,0.6-1.3,3.4c0,2.8,0.6,3.5,1.3,3.5
	C155.2,323.1,155.8,322.5,155.8,319.6z"/>
<path class="st0" d="M160.7,319.6c0-3.6,1.5-5.3,3.6-5.3c2.2,0,3.7,1.8,3.7,5.3c0,3.6-1.5,5.4-3.7,5.4
	C162.2,325,160.7,323.2,160.7,319.6z M165.7,319.6c0-2.8-0.6-3.4-1.3-3.4c-0.7,0-1.3,0.6-1.3,3.4c0,2.8,0.6,3.5,1.3,3.5
	C165.1,323.1,165.7,322.5,165.7,319.6z"/>
<path class="st0" d="M175.3,321.6c0-4.5,3.3-7.4,7.2-7.4c3.5,0,5.7,2.4,5.7,5.7c0,2.9-2,4.4-3.7,4.4c-0.9,0-1.7-0.4-1.8-1.2h0
	c-0.4,0.6-1.3,1.1-1.9,1.1c-1.3,0-2.1-1-2.1-2.4c0-2,1.4-3.9,3.2-3.9c0.5,0,0.9,0.2,1.2,0.8h0l0.3-0.7h1.5l-0.7,3.5
	c-0.2,0.9,0,1.3,0.7,1.3c1,0,1.9-1.1,1.9-2.8c0-2.2-1.2-4.3-4.3-4.3c-2.7,0-5.4,2.3-5.4,5.9c0,3.1,2.2,4.6,4.6,4.6
	c0.8,0,1.7-0.3,2.4-0.6l0.5,1.3c-1,0.5-2,0.7-3.1,0.7C178.2,327.6,175.3,325.7,175.3,321.6z M182.3,321.9l0.4-2.1
	c-0.2-0.3-0.4-0.4-0.7-0.4c-0.9,0-1.5,1.3-1.5,2.2c0,0.7,0.3,1,0.8,1C181.6,322.6,181.9,322.4,182.3,321.9z"/>
<path class="st0" d="M192.5,319.6c0.6-0.6,1.6-1.9,2.6-3.1c0.9-1,1.7-1.1,2.9-0.1c1,0.8,2,1.9,2.8,2.8c0.9,1,2.5,2.6,3.4,3.8l-1.8,2
	c-0.8-1.1-2.1-2.7-2.9-3.6c-0.8-1-2-2.3-2.5-2.7c-0.4-0.4-0.7-0.4-1.1,0.1c-0.5,0.6-1.4,1.9-1.9,2.7c-0.3,0.5-0.7,1-0.9,1.4l-2-2
	C191.7,320.4,192,320.1,192.5,319.6z M202.2,317.3l-1.5,0.6c-0.4-1-0.7-1.5-1.3-2.3l1.4-0.6C201.3,315.7,201.9,316.7,202.2,317.3z
	 M204.1,316.5l-1.4,0.7c-0.5-1-0.8-1.5-1.3-2.2l1.4-0.7C203.2,314.9,203.8,315.9,204.1,316.5z"/>
<path class="st0" d="M206.3,324.3c1.3-0.9,2-2.2,2.3-3.3c0.4-1.1,0.4-3.7,0.4-5.4c0-0.7-0.1-1.1-0.2-1.4h2.5c0,0-0.1,0.7-0.1,1.4
	c0,1.7,0,4.6-0.4,6c-0.4,1.6-1.3,3-2.5,4.1L206.3,324.3z M212.7,324.5c0.1-0.3,0.1-0.7,0.1-1.2v-8c0-0.7-0.1-1.3-0.1-1.3h2.5
	c0,0-0.1,0.6-0.1,1.3v6.8c1-0.4,2.2-1.4,3.1-2.6l1.3,1.9c-1.1,1.4-3.1,3-4.7,3.8c-0.3,0.2-0.5,0.3-0.7,0.5L212.7,324.5z"/>
<path class="st0" d="M232.3,316.3c0.8,0,1.2,0,1.7-0.1v2.2c-0.4,0-0.9,0-1.7,0h-0.7v0.4c0,3.3-0.8,5.5-4.3,7l-1.8-1.7
	c2.8-0.9,3.9-2.1,3.9-5.3v-0.5h-2.9v1.7c0,0.7,0,1.2,0.1,1.6h-2.3c0-0.3,0.1-0.9,0.1-1.6v-1.7h-1c-0.7,0-1.2,0-1.6,0.1v-2.3
	c0.3,0.1,0.8,0.2,1.6,0.2h1v-1.2c0-0.6-0.1-1.1-0.1-1.4h2.4c0,0.3-0.1,0.8-0.1,1.4v1.1h2.9V315c0-0.6,0-1-0.1-1.4h2.4
	c0,0.4-0.1,0.8-0.1,1.4v1.3H232.3z"/>
<path class="st0" d="M236.7,318.2c0.6,0,1.7,0.1,2.4,0.1h7.4c0.6,0,1.3-0.1,1.7-0.1v2.6c-0.4,0-1.1-0.1-1.7-0.1h-7.4
	c-0.8,0-1.8,0-2.4,0.1V318.2z"/>
<path class="st0" d="M250.7,324.3c1.3-0.9,2-2.2,2.3-3.3c0.4-1.1,0.4-3.7,0.4-5.4c0-0.7-0.1-1.1-0.2-1.4h2.5c0,0-0.1,0.7-0.1,1.4
	c0,1.7,0,4.6-0.4,6c-0.4,1.6-1.3,3-2.5,4.1L250.7,324.3z M257.1,324.5c0.1-0.3,0.1-0.7,0.1-1.2v-8c0-0.7-0.1-1.3-0.1-1.3h2.5
	c0,0-0.1,0.6-0.1,1.3v6.8c1-0.4,2.2-1.4,3.1-2.6l1.3,1.9c-1.1,1.4-3.1,3-4.7,3.8c-0.3,0.2-0.5,0.3-0.7,0.5L257.1,324.5z"/>
<path class="st0" d="M271.3,319.8c-0.8,2.3-2.2,4.7-3.5,6.1c-0.5-0.4-1.5-1.1-2.1-1.5c1.4-1.2,2.6-3.2,3.2-5.2L271.3,319.8z
	 M278.6,318h-12.4v-2.1h5.1V313h2.2v2.9h5.1V318z M275.5,319.2c1.2,1.7,2.6,4.1,3.2,5.7l-2.3,1c-0.5-1.6-1.8-4-3-5.9L275.5,319.2z"
	/>
<path class="st0" d="M289.9,317.6c1.1,1.9,2.7,3.7,4.6,4.7c-0.5,0.4-1.2,1.3-1.6,1.8c-0.8-0.5-1.5-1.1-2.1-1.8v1.6h-2.1v2.2h-2.2
	V324h-2.2v-1.4c-0.6,0.6-1.3,1.2-2,1.7c-0.3-0.5-1-1.3-1.5-1.7c1.9-1.1,3.5-2.9,4.5-4.9h-3.9v-2.1h5.1V313h2.2v2.6h5.1v2.1H289.9z
	 M286.5,321.9v-2.3c-0.5,0.8-1,1.6-1.6,2.3H286.5z M290.4,321.9c-0.6-0.7-1.2-1.5-1.7-2.4v2.4H290.4z"/>
<path class="st0" d="M304.7,318.1c1.1,2,3,3.9,5,5c-0.5,0.4-1.2,1.2-1.5,1.8c-1.6-1.1-3.1-2.7-4.2-4.5v5.8h-2.2v-5.7
	c-1.1,1.8-2.6,3.4-4.2,4.5c-0.3-0.5-1-1.3-1.5-1.7c2-1.1,3.8-3,4.9-5.1h-4.2v-2h5.1V313h2.2v3.1h5.1v2H304.7z"/>
<g>
	<path class="st0" d="M124.8,280h-15.5v3.7h5.6v15.4h4.3v-15.4h5.6V280z M136.8,287.5c-0.5-0.6-1.2-1.1-2-1.4
		c-0.8-0.3-1.7-0.5-2.6-0.5c-1,0-2,0.2-2.9,0.5c-0.9,0.3-1.7,0.8-2.4,1.4c-0.7,0.6-1.2,1.3-1.6,2.2c-0.4,0.8-0.6,1.8-0.6,2.8
		c0,1,0.2,2,0.6,2.8c0.4,0.8,0.9,1.6,1.6,2.2c0.7,0.6,1.5,1.1,2.4,1.4c0.9,0.3,1.9,0.5,2.9,0.5c1.1,0,2.1-0.2,3.2-0.7
		c1-0.4,1.9-1.1,2.5-1.9l-2.9-2.1c-0.4,0.5-0.8,0.8-1.2,1.1c-0.5,0.3-1.1,0.4-1.7,0.4c-0.8,0-1.5-0.2-2.1-0.7
		c-0.6-0.5-0.9-1.1-1.1-1.8h9.7v-1.3c0-1-0.1-2-0.4-2.8C137.8,288.8,137.4,288.1,136.8,287.5z M128.9,291c0-0.3,0.1-0.6,0.2-0.9
		c0.1-0.3,0.3-0.6,0.6-0.8c0.2-0.2,0.6-0.4,0.9-0.6c0.4-0.1,0.8-0.2,1.2-0.2c0.8,0,1.4,0.2,1.9,0.7c0.5,0.5,0.7,1.1,0.7,1.8H128.9z
		 M148.2,289.2c0.4,0,0.8,0.1,1.2,0.3c0.4,0.2,0.7,0.4,0.9,0.7l2.7-2.8c-0.6-0.6-1.4-1.1-2.3-1.4c-0.9-0.3-1.7-0.4-2.5-0.4
		c-1,0-2,0.2-2.9,0.5c-0.9,0.3-1.7,0.8-2.4,1.4c-0.7,0.6-1.2,1.3-1.6,2.2c-0.4,0.8-0.6,1.8-0.6,2.8c0,1,0.2,2,0.6,2.8
		c0.4,0.8,0.9,1.6,1.6,2.2c0.7,0.6,1.5,1.1,2.4,1.4c0.9,0.3,1.9,0.5,2.9,0.5c0.8,0,1.6-0.1,2.5-0.4c0.9-0.3,1.6-0.7,2.3-1.4
		l-2.7-2.8c-0.2,0.3-0.5,0.5-0.9,0.7c-0.3,0.2-0.7,0.3-1.2,0.3c-1.1,0-1.9-0.3-2.5-0.9c-0.6-0.6-0.9-1.4-0.9-2.4
		c0-1,0.3-1.8,0.9-2.4C146.3,289.5,147.1,289.2,148.2,289.2z M167.5,287.4c-0.4-0.6-0.9-1-1.5-1.3c-0.6-0.3-1.5-0.5-2.6-0.5
		c-0.5,0-1,0.1-1.4,0.2c-0.4,0.1-0.8,0.3-1.1,0.5c-0.3,0.2-0.6,0.4-0.8,0.7c-0.2,0.3-0.4,0.5-0.5,0.8h-0.1v-9.1h-4.2v20.4h4.2v-6.5
		c0-0.4,0-0.8,0.1-1.2c0.1-0.4,0.2-0.8,0.3-1.1c0.2-0.3,0.4-0.6,0.8-0.8c0.3-0.2,0.8-0.3,1.3-0.3c0.5,0,0.9,0.1,1.2,0.3
		c0.3,0.2,0.5,0.5,0.6,0.8c0.1,0.3,0.2,0.7,0.2,1.1c0,0.4,0,0.8,0,1.2v6.4h4.2v-7.2c0-0.9-0.1-1.7-0.2-2.5
		C168.1,288.6,167.9,288,167.5,287.4z M189.4,295.1c-0.7,0.4-1.5,0.5-2.4,0.5c-0.8,0-1.5-0.2-2.2-0.5c-0.7-0.3-1.3-0.7-1.8-1.3
		c-0.5-0.5-0.9-1.2-1.2-1.9c-0.3-0.7-0.4-1.6-0.4-2.5c0-0.9,0.1-1.7,0.4-2.5c0.3-0.8,0.7-1.4,1.2-2c0.5-0.5,1.1-1,1.8-1.3
		c0.7-0.3,1.4-0.5,2.3-0.5c0.8,0,1.5,0.1,2.2,0.4c0.6,0.3,1.1,0.7,1.6,1.2l3.3-2.6c-0.4-0.5-0.9-1-1.4-1.3c-0.5-0.4-1.1-0.6-1.7-0.9
		c-0.6-0.2-1.2-0.4-1.8-0.5c-0.6-0.1-1.2-0.1-1.7-0.1c-1.5,0-3,0.2-4.2,0.7c-1.3,0.5-2.4,1.1-3.4,2c-0.9,0.9-1.7,1.9-2.2,3.2
		c-0.5,1.2-0.8,2.6-0.8,4.2c0,1.5,0.3,2.9,0.8,4.2c0.5,1.2,1.3,2.3,2.2,3.2c0.9,0.9,2.1,1.5,3.4,2c1.3,0.5,2.7,0.7,4.2,0.7
		c1.4,0,2.7-0.3,3.9-0.8c1.3-0.5,2.3-1.4,3.2-2.5l-3.6-2.6C190.6,294.3,190.1,294.8,189.4,295.1z M208.8,287.5
		c-0.7-0.6-1.5-1.1-2.4-1.4c-0.9-0.3-1.9-0.5-2.9-0.5c-1,0-2,0.2-2.9,0.5c-0.9,0.3-1.7,0.8-2.4,1.4c-0.7,0.6-1.2,1.3-1.6,2.2
		c-0.4,0.8-0.6,1.8-0.6,2.8c0,1,0.2,2,0.6,2.8c0.4,0.8,0.9,1.6,1.6,2.2c0.7,0.6,1.5,1.1,2.4,1.4c0.9,0.3,1.9,0.5,2.9,0.5
		c1,0,2-0.2,2.9-0.5c0.9-0.3,1.7-0.8,2.4-1.4c0.7-0.6,1.2-1.3,1.6-2.2c0.4-0.8,0.6-1.8,0.6-2.8c0-1-0.2-2-0.6-2.8
		S209.5,288.1,208.8,287.5z M206,294.9c-0.6,0.6-1.4,0.9-2.5,0.9c-1.1,0-1.9-0.3-2.5-0.9c-0.6-0.6-0.9-1.4-0.9-2.4
		c0-1,0.3-1.8,0.9-2.4c0.6-0.6,1.4-0.9,2.5-0.9c1.1,0,1.9,0.3,2.5,0.9c0.6,0.6,0.9,1.4,0.9,2.4C206.8,293.5,206.6,294.3,206,294.9z
		 M225.5,287.4c-0.4-0.6-0.9-1-1.5-1.3c-0.6-0.3-1.5-0.5-2.6-0.5c-0.5,0-1,0.1-1.4,0.2c-0.4,0.1-0.8,0.3-1.1,0.5
		c-0.3,0.2-0.6,0.4-0.9,0.7c-0.2,0.3-0.4,0.5-0.6,0.8h-0.1V286h-4v13.1h4.2v-6.5c0-0.4,0-0.8,0.1-1.2c0.1-0.4,0.2-0.8,0.3-1.1
		c0.2-0.3,0.4-0.6,0.8-0.8c0.3-0.2,0.8-0.3,1.3-0.3c0.5,0,0.9,0.1,1.2,0.3c0.3,0.2,0.5,0.5,0.6,0.8c0.1,0.3,0.2,0.7,0.2,1.1
		c0,0.4,0,0.8,0,1.2v6.4h4.2v-7.2c0-0.9-0.1-1.7-0.2-2.5C226.1,288.6,225.9,288,225.5,287.4z M236.1,278.4c-1.1,0-2,0.1-2.7,0.4
		c-0.7,0.3-1.2,0.7-1.6,1.1c-0.4,0.5-0.6,1-0.7,1.7c-0.1,0.6-0.2,1.3-0.2,2v2.3h-2.7v3.2h2.7v9.9h4.2v-9.9h3.1V286H235v-2.1
		c0-0.9,0.2-1.4,0.5-1.7c0.3-0.3,0.8-0.4,1.5-0.4c0.3,0,0.5,0,0.7,0.1c0.2,0,0.4,0.1,0.7,0.2l0.2-3.4c-0.4-0.1-0.8-0.2-1.2-0.2
		C236.9,278.4,236.5,278.4,236.1,278.4z M258,290.7c0.4-0.3,0.7-0.7,1-1c0.3-0.3,0.6-0.7,0.8-1.1c0.2-0.4,0.4-0.9,0.5-1.3
		c0.1-0.5,0.2-1,0.2-1.7c0-1-0.2-1.8-0.5-2.5c-0.3-0.7-0.8-1.3-1.3-1.8c-0.6-0.5-1.2-0.8-2-1.1c-0.8-0.2-1.6-0.4-2.5-0.4
		c-1,0-1.9,0.1-2.7,0.4c-0.8,0.2-1.5,0.6-2.2,1.1c-0.6,0.5-1.1,1.1-1.5,1.8c-0.4,0.7-0.6,1.6-0.6,2.6l4.2,0.3
		c0.1-0.7,0.3-1.3,0.7-1.7c0.4-0.5,1-0.7,1.8-0.7c0.6,0,1.2,0.2,1.7,0.6c0.5,0.4,0.7,0.9,0.7,1.5c0,0.6-0.2,1.1-0.6,1.5
		c-0.4,0.4-0.8,0.8-1.2,1.2l-7.6,6.7v4.3h13.7v-3.6h-8.7L258,290.7z M276.9,283c-0.5-1-1.3-1.7-2.2-2.3c-0.9-0.6-2.1-0.9-3.6-0.9
		c-1.5,0-2.7,0.3-3.6,0.9c-0.9,0.6-1.7,1.4-2.2,2.3c-0.5,1-0.9,2-1.1,3.2c-0.2,1.2-0.3,2.3-0.3,3.5c0,1.1,0.1,2.3,0.3,3.5
		c0.2,1.2,0.6,2.2,1.1,3.2c0.5,1,1.3,1.7,2.2,2.3c0.9,0.6,2.1,0.9,3.6,0.9c1.5,0,2.7-0.3,3.6-0.9c0.9-0.6,1.7-1.4,2.2-2.3
		c0.5-1,0.9-2,1.1-3.2c0.2-1.2,0.3-2.3,0.3-3.5c0-1.1-0.1-2.3-0.3-3.5C277.8,285.1,277.4,284,276.9,283z M274.1,291.5
		c0,0.7-0.2,1.4-0.4,2c-0.2,0.6-0.5,1.2-0.9,1.6c-0.4,0.4-1,0.7-1.7,0.7c-0.8,0-1.3-0.2-1.8-0.7c-0.4-0.4-0.7-1-0.9-1.6
		c-0.2-0.6-0.3-1.3-0.4-2c0-0.7-0.1-1.3-0.1-1.8c0-0.5,0-1.1,0.1-1.8c0-0.7,0.2-1.4,0.4-2c0.2-0.6,0.5-1.2,0.9-1.6
		c0.4-0.4,1-0.7,1.8-0.7c0.7,0,1.3,0.2,1.7,0.7c0.4,0.4,0.7,1,0.9,1.6c0.2,0.6,0.3,1.3,0.4,2c0,0.7,0.1,1.3,0.1,1.8
		C274.2,290.2,274.1,290.8,274.1,291.5z M280.9,285.4l2.4,2.6l3.9-3.4v14.6h4v-19.1h-3.9L280.9,285.4z M295.3,280.1v3.7h9.7l-8,15.4
		h4.9l7.9-15.5v-3.6H295.3z"/>
	<path class="st0" d="M19,287c-1.1-0.8-2.6-1.2-4.5-1.2c-0.9,0-1.7,0.1-2.4,0.4c-0.7,0.3-1.3,0.6-1.8,1c-0.5-0.4-1.1-0.7-1.8-1
		c-0.7-0.2-1.5-0.4-2.5-0.4c-1.9,0-3.4,0.4-4.5,1.2c-1.1,0.8-1.6,2-1.6,3.6v8.6h3.8V291c0-0.8,0.2-1.4,0.5-1.8
		c0.4-0.4,1-0.5,1.8-0.5c0.8,0,1.5,0.2,1.8,0.5c0.4,0.4,0.5,0.9,0.5,1.8v8.2h3.6v-8.4c0-0.7,0.2-1.3,0.6-1.6c0.4-0.3,1-0.5,1.7-0.5
		c0.8,0,1.4,0.2,1.8,0.5c0.4,0.4,0.5,0.9,0.5,1.8v8.2h3.8v-8.6C20.6,289,20.1,287.8,19,287z M36.3,287.2c-0.6-0.5-1.3-0.9-2-1.1
		c-0.8-0.2-1.6-0.4-2.4-0.4c-1.1,0-2.1,0.2-3.1,0.6c-0.9,0.4-1.7,0.9-2.4,1.5c-0.7,0.6-1.2,1.3-1.5,2.2c-0.4,0.8-0.5,1.7-0.5,2.5
		c0,1.3,0.2,2.4,0.6,3.3c0.4,0.9,1,1.6,1.8,2.2c0.8,0.6,1.7,1,2.7,1.2c1.1,0.2,2.2,0.4,3.5,0.4c0.7,0,1.4,0,1.9,0
		c0.6,0,1-0.1,1.4-0.1c0.4,0,0.7-0.1,1-0.1c0.3,0,0.5-0.1,0.7-0.1l0-3.1c-0.3,0.1-0.9,0.2-1.7,0.3c-0.8,0.1-1.8,0.1-3,0.1
		c-0.8,0-1.5-0.1-2.2-0.2c-0.6-0.1-1.2-0.3-1.7-0.5c-0.5-0.3-0.8-0.6-1.1-1c-0.3-0.4-0.4-1-0.5-1.7h10.2c0-0.2,0-0.4,0-0.6v-0.6
		c0-1.1-0.2-2-0.5-2.7C37.4,288.3,36.9,287.7,36.3,287.2z M28.4,290.6c0.3-0.7,0.7-1.2,1.3-1.6c0.6-0.4,1.3-0.6,2.1-0.6
		c0.9,0,1.5,0.2,1.9,0.6c0.4,0.4,0.6,1,0.6,1.6H28.4z M49.4,285.8c-0.2,0-0.4,0-0.6,0c-0.2,0-0.5,0-0.8,0c-2.2,0-3.9,0.5-5.1,1.6
		c-1.2,1-1.8,2.5-1.8,4.4v7.6h4v-7.7c0-1,0.3-1.7,0.9-2.2c0.6-0.5,1.4-0.7,2.5-0.7c0.3,0,0.7,0,1,0.1c0.4,0,0.8,0.1,1.1,0.1v-3
		c-0.2,0-0.4,0-0.6-0.1C49.8,285.8,49.6,285.8,49.4,285.8z M61.1,296.6c-1.7,0-3-0.3-3.9-0.9c-0.9-0.6-1.3-1.5-1.3-2.8
		c0-1.5,0.4-2.5,1.3-3.2c0.9-0.7,2.1-1,3.8-1c0.6,0,1.1,0,1.4,0.1c0.4,0,0.8,0.1,1.1,0.2v-2.9c-0.4-0.1-0.8-0.1-1.3-0.2
		c-0.5,0-1-0.1-1.6-0.1c-1.3,0-2.4,0.1-3.5,0.4c-1.1,0.3-2,0.7-2.7,1.3c-0.8,0.6-1.4,1.4-1.8,2.3c-0.4,0.9-0.6,2-0.6,3.2
		c0,1.2,0.2,2.2,0.6,3c0.4,0.8,1,1.5,1.8,2c0.8,0.5,1.7,0.9,2.7,1.1c1.1,0.2,2.2,0.4,3.5,0.4c0.6,0,1.1,0,1.6-0.1
		c0.5,0,1-0.1,1.4-0.2v-2.9c-0.3,0.1-0.7,0.1-1.1,0.2C62.2,296.6,61.7,296.6,61.1,296.6z M78,287.5c-0.6-0.6-1.3-1-2.1-1.3
		c-0.8-0.3-1.8-0.4-2.8-0.4c-1.1,0-2.1,0.2-2.9,0.6c-0.9,0.4-1.6,0.9-2.2,1.5c-0.6,0.6-1,1.4-1.4,2.3c-0.3,0.9-0.5,1.9-0.5,2.9
		c0,1,0.2,1.9,0.5,2.7c0.3,0.8,0.7,1.5,1.3,2c0.6,0.6,1.2,1,2,1.3c0.8,0.3,1.6,0.5,2.6,0.5c1,0,1.8-0.3,2.4-0.7
		c0.7-0.4,1.3-1.1,1.6-1.6v2h3.4v-6.6c0-1.1-0.2-2.1-0.5-3C79.1,288.8,78.6,288.1,78,287.5z M75.2,295.2c-0.4,0.4-1.3,1.2-2.1,1.2
		c-1,0-1.7-0.2-2.3-0.8c-0.6-0.7-0.8-1.5-0.8-2.8c0-1.3,0.3-2.3,0.8-2.9c0.6-0.7,1.3-1,2.3-1c1,0,1.7,0.3,2.3,1
		c0.6,0.7,0.8,1.6,0.8,2.9C76.2,293.6,75.9,294.5,75.2,295.2z M91.7,285.8c-0.2,0-0.4,0-0.6,0c-0.2,0-0.5,0-0.8,0
		c-2.2,0-3.9,0.5-5.1,1.6c-1.2,1-1.8,2.5-1.8,4.4v7.6h4v-7.7c0-1,0.3-1.7,0.9-2.2c0.6-0.5,1.4-0.7,2.5-0.7c0.3,0,0.7,0,1,0.1
		c0.4,0,0.8,0.1,1.1,0.1v-3c-0.2,0-0.4,0-0.6-0.1C92.1,285.8,91.9,285.8,91.7,285.8z M97.6,279.9c-0.7,0-1.2,0.2-1.6,0.6
		c-0.4,0.4-0.6,1-0.6,1.6c0,0.6,0.2,1.2,0.6,1.6c0.4,0.4,0.9,0.7,1.6,0.7c0.7,0,1.2-0.2,1.6-0.7c0.4-0.4,0.6-1,0.6-1.6
		c0-0.6-0.2-1.2-0.6-1.6C98.8,280.1,98.2,279.9,97.6,279.9z M95.6,299h3.9v-13h-3.9V299z"/>
</g>
</svg>
