<svg width="690px" height="422px" viewBox="0 0 690 422" version="1.1" xmlns="http://www.w3.org/2000/svg" xmlns:xlink="http://www.w3.org/1999/xlink">
    <g id="Page-1" stroke="none" stroke-width="1" fill="none" fill-rule="evenodd">
        <g id="mtc_01_fix" transform="translate(-250.000000, -115.000000)" fill="#121C3B">
            <g id="hero" transform="translate(249.000000, 80.000000)">
                <g id="img_mtc" transform="translate(1.000000, 35.000000)">
                    <g id="Group">
                        <path d="M84.2734375,175.359375 L84.2734375,193.710938 L53.265625,193.710938 L53.265625,279 L31.46875,279 L31.46875,193.710938 L0.3203125,193.710938 L0.3203125,175.359375 L84.2734375,175.359375 Z M113.753906,221.203125 C111.199206,224.10939 109.593753,228.04685 108.9375,233.015625 L140.085938,233.015625 C139.757811,227.718724 138.152358,223.699232 135.269531,220.957031 C132.386704,218.21483 128.812521,216.84375 124.546875,216.84375 C119.906227,216.84375 116.308607,218.29686 113.753906,221.203125 Z M141.773438,203.90625 C146.882838,206.296887 151.101546,210.070287 154.429688,215.226562 C157.429702,219.77346 159.374996,225.046845 160.265625,231.046875 C160.781253,234.562518 160.992188,239.624967 160.898438,246.234375 L108.445312,246.234375 C108.726564,253.921913 111.140602,259.312485 115.6875,262.40625 C118.453139,264.328135 121.781231,265.289062 125.671875,265.289062 C129.796896,265.289062 133.148425,264.117199 135.726562,261.773438 C137.13282,260.507806 138.374995,258.750011 139.453125,256.5 L159.914062,256.5 C159.398435,261.046898 157.031271,265.664039 152.8125,270.351562 C146.249967,277.804725 137.062559,281.53125 125.25,281.53125 C115.499951,281.53125 106.898475,278.390656 99.4453125,272.109375 C91.9921502,265.828094 88.265625,255.609446 88.265625,241.453125 C88.265625,228.187434 91.6288726,218.01566 98.3554688,210.9375 C105.082065,203.85934 113.812446,200.320312 124.546875,200.320312 C130.921907,200.320312 136.664037,201.515613 141.773438,203.90625 Z M223.171875,229.851562 C222.796873,226.992173 221.835945,224.414074 220.289062,222.117188 C218.039051,219.023422 214.546899,217.476562 209.8125,217.476562 C203.062466,217.476562 198.445325,220.828091 195.960938,227.53125 C194.648431,231.093768 193.992188,235.828095 193.992188,241.734375 C193.992188,247.359403 194.648431,251.882795 195.960938,255.304688 C198.351574,261.679719 202.851529,264.867188 209.460938,264.867188 C214.148461,264.867188 217.476553,263.601575 219.445312,261.070312 C221.414072,258.53905 222.609373,255.257833 223.03125,251.226562 L243.492188,251.226562 C243.023435,257.320343 240.820332,263.08591 236.882812,268.523438 C230.601531,277.289106 221.296937,281.671875 208.96875,281.671875 C196.640563,281.671875 187.570342,278.015662 181.757812,270.703125 C175.945283,263.390588 173.039062,253.898496 173.039062,242.226562 C173.039062,229.054622 176.249968,218.812537 182.671875,211.5 C189.093782,204.187463 197.953069,200.53125 209.25,200.53125 C218.859423,200.53125 226.722626,202.687478 232.839844,207 C238.957062,211.312522 242.578119,218.929633 243.703125,229.851562 L223.171875,229.851562 Z M312.644531,202.851562 C316.511738,204.492196 319.687488,206.999983 322.171875,210.375 C324.281261,213.234389 325.57031,216.175766 326.039062,219.199219 C326.507815,222.222671 326.742188,227.156216 326.742188,234 L326.742188,279 L306.28125,279 L306.28125,232.382812 C306.28125,228.257792 305.578132,224.9297 304.171875,222.398438 C302.343741,218.83592 298.875026,217.054688 293.765625,217.054688 C288.468724,217.054688 284.449232,218.824201 281.707031,222.363281 C278.96483,225.902361 277.59375,230.953092 277.59375,237.515625 L277.59375,279 L257.625,279 L257.625,175.710938 L277.59375,175.710938 L277.59375,212.34375 C280.500015,207.890603 283.863262,204.785165 287.683594,203.027344 C291.503925,201.269522 295.523416,200.390625 299.742188,200.390625 C304.476586,200.390625 308.777324,201.210929 312.644531,202.851562 Z M385.875,184.554688 C394.312542,176.023395 405.04681,171.757812 418.078125,171.757812 C435.515712,171.757812 448.265585,177.476505 456.328125,188.914062 C460.781272,195.33597 463.171873,201.781218 463.5,208.25 L441.84375,208.25 C440.437493,203.281225 438.632824,199.531263 436.429688,197 C432.492168,192.499977 426.656289,190.25 418.921875,190.25 C411.046836,190.25 404.83596,193.425749 400.289062,199.777344 C395.742165,206.128938 393.46875,215.117129 393.46875,226.742188 C393.46875,238.367246 395.87107,247.07419 400.675781,252.863281 C405.480493,258.652373 411.5859,261.546875 418.992188,261.546875 C426.585975,261.546875 432.37498,259.062525 436.359375,254.09375 C438.562511,251.421862 440.390618,247.414089 441.84375,242.070312 L463.289062,242.070312 C461.414053,253.367244 456.621132,262.554652 448.910156,269.632812 C441.19918,276.710973 431.320373,280.25 419.273438,280.25 C404.367113,280.25 392.64848,275.468798 384.117188,265.90625 C375.585895,256.296827 371.320312,243.125084 371.320312,226.390625 C371.320312,208.296785 376.171826,194.351611 385.875,184.554688 Z M528.101562,257.523438 C531.242203,253.351542 532.8125,247.421913 532.8125,239.734375 C532.8125,232.046837 531.242203,226.128927 528.101562,221.980469 C524.960922,217.832011 520.460967,215.757812 514.601562,215.757812 C508.742158,215.757812 504.230485,217.832011 501.066406,221.980469 C497.902328,226.128927 496.320312,232.046837 496.320312,239.734375 C496.320312,247.421913 497.902328,253.351542 501.066406,257.523438 C504.230485,261.695333 508.742158,263.78125 514.601562,263.78125 C520.460967,263.78125 524.960922,261.695333 528.101562,257.523438 Z M543.945312,268.542969 C537.47653,276.535196 527.656316,280.53125 514.484375,280.53125 C501.312434,280.53125 491.49222,276.535196 485.023438,268.542969 C478.554655,260.550741 475.320312,250.929744 475.320312,239.679688 C475.320312,228.617132 478.554655,219.031291 485.023438,210.921875 C491.49222,202.812459 501.312434,198.757812 514.484375,198.757812 C527.656316,198.757812 537.47653,202.812459 543.945312,210.921875 C550.414095,219.031291 553.648438,228.617132 553.648438,239.679688 C553.648438,250.929744 550.414095,260.550741 543.945312,268.542969 Z M627.089844,204.980469 C632.128931,209.128927 634.648438,216.007764 634.648438,225.617188 L634.648438,277.226562 L614.117188,277.226562 L614.117188,230.609375 C614.117188,226.578105 613.57813,223.484386 612.5,221.328125 C610.53124,217.390605 606.781278,215.421875 601.25,215.421875 C594.453091,215.421875 589.789075,218.304659 587.257812,224.070312 C585.945306,227.117203 585.289062,231.007789 585.289062,235.742188 L585.289062,277.226562 L565.320312,277.226562 L565.320312,200.726562 L584.65625,200.726562 L584.65625,211.90625 C587.234388,207.96873 589.671864,205.132821 591.96875,203.398438 C596.093771,200.304672 601.320281,198.757812 607.648438,198.757812 C615.570352,198.757812 622.050756,200.832011 627.089844,204.980469 Z M684.90625,172.863281 C685.937505,172.933594 687.343741,173.039062 689.125,173.179688 L689.125,189.492188 C687.999994,189.351562 686.113294,189.246094 683.464844,189.175781 C680.816393,189.105468 678.988286,189.6914 677.980469,190.933594 C676.972651,192.175787 676.46875,193.546867 676.46875,195.046875 L676.46875,201.515625 L689.617188,201.515625 L689.617188,215.648438 L676.46875,215.648438 L676.46875,277.453125 L656.5,277.453125 L656.5,215.648438 L645.320312,215.648438 L645.320312,201.515625 L656.289062,201.515625 L656.289062,196.59375 C656.289062,188.390584 657.671861,182.742203 660.4375,179.648438 C663.343765,175.054665 670.351507,172.757812 681.460938,172.757812 C682.726569,172.757812 683.874995,172.792968 684.90625,172.863281 Z M5.2109375,398.960938 C8.0703268,392.164029 14.8202593,384.968788 25.4609375,377.375 C34.6953587,370.765592 40.6718614,366.031264 43.390625,363.171875 C47.5625209,358.718728 49.6484375,353.843776 49.6484375,348.546875 C49.6484375,344.234353 48.453137,340.648452 46.0625,337.789062 C43.671863,334.929673 40.2500223,333.5 35.796875,333.5 C29.7030945,333.5 25.5546985,335.773415 23.3515625,340.320312 C22.0859312,342.945326 21.3359387,347.117159 21.1015625,352.835938 L1.625,352.835938 C1.95312664,344.164019 3.52342344,337.156277 6.3359375,331.8125 C11.6797142,321.640574 21.1718068,316.554688 34.8125,316.554688 C45.5938039,316.554688 54.1718431,319.542939 60.546875,325.519531 C66.9219069,331.496124 70.109375,339.406201 70.109375,349.25 C70.109375,356.796913 67.8593975,363.499971 63.359375,369.359375 C60.4062352,373.250019 55.5547213,377.585914 48.8046875,382.367188 L40.7890625,388.0625 C35.7734124,391.625018 32.339853,394.203117 30.4882812,395.796875 C28.6367095,397.390633 27.0781313,399.242177 25.8125,401.351562 L70.3203125,401.351562 L70.3203125,419 L0.5,419 C0.687500937,411.687463 2.25779773,405.007843 5.2109375,398.960938 Z M107.929688,395.902344 C109.851572,402.113312 113.789033,405.21875 119.742188,405.21875 C125.695342,405.21875 129.597647,402.113312 131.449219,395.902344 C133.300791,389.691375 134.226562,380.726621 134.226562,369.007812 C134.226562,356.726501 133.300791,347.632842 131.449219,341.726562 C129.597647,335.820283 125.695342,332.867188 119.742188,332.867188 C113.789033,332.867188 109.851572,335.820283 107.929688,341.726562 C106.007803,347.632842 105.046875,356.726501 105.046875,369.007812 C105.046875,380.726621 106.007803,389.691375 107.929688,395.902344 Z M147.058594,330.054688 C152.285182,339.195358 154.898438,352.179603 154.898438,369.007812 C154.898438,385.836022 152.285182,398.79683 147.058594,407.890625 C141.832005,416.98442 132.726627,421.53125 119.742188,421.53125 C106.757748,421.53125 97.6523699,416.98442 92.4257812,407.890625 C87.1991926,398.79683 84.5859375,385.836022 84.5859375,369.007812 C84.5859375,352.179603 87.1991926,339.195358 92.4257812,330.054688 C97.6523699,320.914017 106.757748,316.34375 119.742188,316.34375 C132.726627,316.34375 141.832005,320.914017 147.058594,330.054688 Z M165.15625,348.6875 L165.15625,335.046875 C171.484407,334.765624 175.91405,334.343753 178.445312,333.78125 C182.476583,332.890621 185.7578,331.109388 188.289062,328.4375 C190.023446,326.609366 191.335933,324.17189 192.226562,321.125 C192.74219,319.296866 193,317.937504 193,317.046875 L209.664062,317.046875 L209.664062,419 L189.132812,419 L189.132812,348.6875 L165.15625,348.6875 Z M251.769531,401.070312 C254.371107,403.835951 257.968727,405.21875 262.5625,405.21875 C267.156273,405.21875 270.753893,403.835951 273.355469,401.070312 C275.957044,398.304674 277.257812,394.414088 277.257812,389.398438 C277.257812,384.195286 275.933607,380.246107 273.285156,377.550781 C270.636706,374.855455 267.062523,373.507812 262.5625,373.507812 C258.062477,373.507812 254.488294,374.855455 251.839844,377.550781 C249.191393,380.246107 247.867188,384.195286 247.867188,389.398438 C247.867188,394.414088 249.167956,398.304674 251.769531,401.070312 Z M230.957031,375.195312 C233.558607,370.554664 237.367162,367.062512 242.382812,364.71875 C237.460913,361.437484 234.261726,357.886738 232.785156,354.066406 C231.308586,350.246075 230.570312,346.671892 230.570312,343.34375 C230.570312,335.937463 233.359347,329.62112 238.9375,324.394531 C244.515653,319.167943 252.390574,316.554688 262.5625,316.554688 C272.734426,316.554688 280.609347,319.167943 286.1875,324.394531 C291.765653,329.62112 294.554688,335.937463 294.554688,343.34375 C294.554688,346.671892 293.816414,350.246075 292.339844,354.066406 C290.863274,357.886738 287.664087,361.203111 282.742188,364.015625 C287.757838,366.828139 291.531237,370.554664 294.0625,375.195312 C296.593763,379.835961 297.859375,385.015596 297.859375,390.734375 C297.859375,399.312543 294.683626,406.613251 288.332031,412.636719 C281.980437,418.660186 273.109432,421.671875 261.71875,421.671875 C250.328068,421.671875 241.703154,418.660186 235.84375,412.636719 C229.984346,406.613251 227.054688,399.312543 227.054688,390.734375 C227.054688,385.015596 228.355456,379.835961 230.957031,375.195312 Z M253.105469,354.664062 C250.83202,352.320301 249.695312,349.296894 249.695312,345.59375 C249.695312,341.56248 250.83202,338.410168 253.105469,336.136719 C255.378918,333.86327 258.53123,332.726562 262.5625,332.726562 C266.640645,332.726562 269.792958,333.86327 272.019531,336.136719 C274.246105,338.410168 275.359375,341.56248 275.359375,345.59375 C275.359375,349.296894 274.246105,352.320301 272.019531,354.664062 C269.792958,357.007824 266.640645,358.179688 262.5625,358.179688 C258.53123,358.179688 255.378918,357.007824 253.105469,354.664062 Z M117.564731,137 L117.564731,78.0289873 C117.564731,72.022923 116.321884,67.7420255 113.84298,65.1950273 C111.360196,62.6480291 107.181473,61.3750152 101.304871,61.3750152 C95.8192669,61.3750152 91.7695828,62.5199515 89.15873,64.8040024 C86.5439963,67.0909642 85.1080758,70.9109763 84.8480577,76.2650091 L84.8480577,137 L59.7728101,137 L59.7728101,78.0289873 C59.7728101,72.022923 58.4989157,67.7420255 55.9520972,65.1950273 C53.4052786,62.6480291 49.1935684,61.3750152 43.3159964,61.3750152 C37.4393945,61.3750152 33.257761,62.6480291 30.7778874,65.1950273 C28.2960734,67.7420255 27.0561366,72.022923 27.0561366,78.0289873 L27.0561366,137 L1,137 L1,75.2859915 C1,63.5300182 4.79354685,54.8789569 12.3787001,49.3260158 C19.9638534,43.7759854 30.3587539,41 43.5701931,41 C50.1084827,41 55.7958923,41.8810188 60.6353326,43.6440267 C65.4757432,45.4080049 69.5952828,47.7289266 72.9958919,50.6 C76.3935904,47.8570042 80.4500659,45.571983 85.1575568,43.7429958 C89.8660179,41.9149788 95.3603544,41 101.637656,41 C114.715205,41 125.080029,43.7759854 132.732127,49.3260158 C140.382285,54.8789569 144.207849,63.5300182 144.207849,75.2859915 L144.207849,137 L117.564731,137 Z M234.699375,75.553885 C234.699375,71.2602699 233.259655,67.5834813 230.385073,64.524486 C227.506605,61.4674243 223.126243,59.9359931 217.241073,59.9359931 C211.356874,59.9359931 206.452889,61.3359378 202.53009,64.1338937 C198.606319,66.9337832 195.728823,70.7401247 193.898572,75.553885 L234.699375,75.553885 Z M260.592959,136.266821 C259.284387,136.529794 257.71449,136.818871 255.885211,137.145653 C254.052045,137.469536 251.765203,137.761513 249.018855,138.024486 C246.273479,138.282625 243.002536,138.512726 239.211857,138.707056 C235.41632,138.902352 230.972813,139 225.872591,139 C216.977804,139 208.904882,138.121167 201.647023,136.364469 C194.389164,134.60777 188.11152,131.776943 182.816032,127.872953 C177.519573,123.967997 173.430653,118.82842 170.55607,112.450357 C167.677602,106.075194 166.239826,98.2662484 166.239826,89.0235192 C166.239826,82.7769425 167.481365,76.7595004 169.967359,70.9663589 C172.449467,65.1770846 175.949677,60.0674796 180.462159,55.6414112 C184.972698,51.21921 190.367275,47.6710075 196.64492,45.0016377 C202.921593,42.3361351 209.916183,41 217.634518,41 C223.518717,41 229.109532,41.8488615 234.405019,43.5378833 C239.701478,45.2307723 244.342194,47.833432 248.332997,51.3458624 C252.320884,54.8602265 255.492737,59.3201334 257.846611,64.7188154 C260.200484,70.1203978 261.377907,76.5970759 261.377907,84.1430488 L261.377907,88.2433014 C261.377907,89.8047038 261.310875,91.3032635 261.18167,92.7331794 L191.354289,92.7331794 C191.746764,97.5488734 192.857155,101.517639 194.689349,104.641411 C196.518628,107.765183 199.004622,110.23829 202.143445,112.059765 C205.282267,113.88414 209.072946,115.153565 213.520339,115.867073 C217.964818,116.583481 222.936806,116.940235 228.428531,116.940235 C236.927929,116.940235 243.858402,116.648258 249.221892,116.061402 C254.582469,115.475514 258.373148,114.860621 260.598787,114.207056 L260.592959,136.266821 Z M284.411337,137 L284.411337,83.3179682 C284.411337,69.8662323 288.539775,59.4520788 296.797624,52.0716346 C305.0545,44.6902221 316.522599,41 331.203869,41 C333.298272,41 335.135622,41.0338908 336.709102,41.0968308 C338.281608,41.1636441 339.688588,41.2624115 340.935882,41.3911965 C342.179282,41.5209497 343.393471,41.6836255 344.572608,41.8792237 C345.752718,42.074822 347.061355,42.2404027 348.50436,42.3682193 L348.50436,63.2885155 C346.145114,62.8982873 343.65442,62.5739041 341.033251,62.3114926 C338.410135,62.051986 336.050889,61.9202961 333.956486,61.9202961 C326.877773,61.9202961 321.306329,63.6506627 317.245076,67.1007444 C313.179928,70.5566359 311.149788,75.6741442 311.149788,82.4493958 L311.149788,137 L284.411337,137 Z M440.638081,137.438598 C437.882141,137.82919 434.763551,138.185944 431.287185,138.512726 C427.80887,138.835642 424.166778,139 420.362858,139 C411.437003,139 403.334908,138.152105 396.052673,136.462117 C388.769464,134.773095 382.469892,132.069887 377.154933,128.361193 C371.840949,124.651533 367.737746,119.83874 364.853123,113.914112 C361.964601,107.994318 360.521802,100.868908 360.521802,92.5388501 C360.521802,83.8211002 361.997747,76.2374216 364.95061,69.7955487 C367.903473,63.3536759 372.003751,57.9839983 377.253394,53.6894164 C382.500113,49.3948345 388.769464,46.2082199 396.052673,44.1237718 C403.334908,42.0441577 411.307346,41 419.969013,41 C423.773908,41 427.380905,41.1643582 430.794879,41.4882404 C434.205928,41.8140563 437.291373,42.1708101 440.047314,42.5623693 L440.047314,63.4503571 C437.685218,62.9331123 435.156421,62.5415532 432.46872,62.2785802 C429.777121,62.0204412 426.464533,61.8889547 422.528032,61.8889547 C410.978817,61.8889547 402.219663,64.2315418 396.249596,68.9157492 C390.276603,73.6018902 387.292545,81.21554 387.292545,91.7566986 C387.292545,101.128014 390.309749,107.862831 396.347082,111.962117 C402.382466,116.061402 411.24008,118.111045 422.921877,118.111045 C426.725796,118.111045 430.072505,117.983426 432.961027,117.72142 C435.84565,117.461347 438.404668,117.071722 440.638081,116.549643 L440.638081,137.438598 Z M492.094979,68.9160246 C488.188256,73.6022119 486.233927,80.6300425 486.233927,90.0004834 C486.233927,99.3709243 488.188256,105.431933 492.094979,110.117153 C496.001701,114.802374 501.276454,116.178162 507.91827,116.178162 C513.742557,116.178162 519.982864,110.795862 522.604761,107.94277 C527.242905,102.896925 529.60358,96.2355199 529.60358,90.0004834 C529.60358,80.6300425 527.649251,73.6022119 523.742528,68.9160246 C519.835806,64.2308041 514.561053,61.8891607 507.91827,61.8891607 C501.276454,61.8891607 496.001701,64.2308041 492.094979,68.9160246 Z M554.803779,136.65739 L531.361508,136.65739 L531.361508,122.648136 C529.413952,126.116127 525.6301,131.110731 520.544008,134.233566 C516.819173,136.520101 510.65433,139 504.011547,139 C497.369732,139 491.344207,137.926827 485.941745,135.779515 C480.535414,133.632203 475.879854,130.572211 471.973132,126.604372 C468.066409,122.632667 465.038167,117.818859 462.889373,112.158115 C460.740579,106.496404 459.665698,100.152117 459.665698,93.1233192 C459.665698,85.7058591 460.740579,78.805649 462.889373,72.4304233 C465.038167,66.0513304 468.164126,60.5520456 472.266281,55.9335359 C476.368437,51.3130925 481.414862,47.667206 487.406525,45.0016771 C493.395285,42.3361483 500.168679,41 507.722837,41 C514.884194,41 521.364439,42.0093624 527.160669,44.0251867 C532.953996,46.0419778 537.906575,49.0681314 542.00873,53.1036473 C546.110886,57.1362627 549.266837,62.2120794 551.483355,68.3310971 C553.696004,74.4462476 554.803779,81.6055661 554.803779,89.8042185 L554.803779,136.65739 Z M578.838663,137 L578.838663,83.3179682 C578.838663,69.8662323 582.967101,59.4520788 591.22495,52.0716346 C599.481826,44.6902221 610.949925,41 625.631195,41 C627.725598,41 629.562948,41.0338908 631.136428,41.0968308 C632.708934,41.1636441 634.115913,41.2624115 635.363208,41.3911965 C636.606608,41.5209497 637.820797,41.6836255 638.999933,41.8792237 C640.180043,42.074822 641.48868,42.2404027 642.931686,42.3682193 L642.931686,63.2885155 C640.57244,62.8982873 638.081745,62.5739041 635.460577,62.3114926 C632.837461,62.051986 630.478214,61.9202961 628.383811,61.9202961 C621.305098,61.9202961 615.733655,63.6506627 611.672401,67.1007444 C607.607253,70.5566359 605.577113,75.6741442 605.577113,82.4493958 L605.577113,137 L578.838663,137 Z M661.330501,136 L688.036575,136 L688.036575,43.1321598 L661.330501,43.1321598 L661.330501,136 Z M674.879978,32.251698 C670.427993,32.251698 666.82984,30.6679307 664.079684,27.4917365 C661.330501,24.319391 659.956395,20.4667761 659.956395,15.9319674 C659.956395,11.3990831 661.330501,7.61093502 664.079684,4.56559882 C666.82984,1.52507358 670.492176,0 675.076418,0 C679.525485,0 683.126555,1.52507358 685.876711,4.56559882 C688.625895,7.61093502 690,11.3990831 690,15.9319674 C690,20.4667761 688.625895,24.319391 685.876711,27.4917365 C683.126555,30.6679307 679.461302,32.251698 674.879978,32.251698 Z" id="Mask"></path>
                    </g>
                </g>
            </g>
        </g>
    </g>
</svg>
