<?xml version="1.0" encoding="UTF-8"?>
<svg width="280px" height="134px" viewBox="0 0 280 134" version="1.1" xmlns="http://www.w3.org/2000/svg" xmlns:xlink="http://www.w3.org/1999/xlink">
    <!-- Generator: Sketch 51.2 (57519) - http://www.bohemiancoding.com/sketch -->
    <title>logo</title>
    <desc>Created with Sketch.</desc>
    <defs>
        <polygon id="path-1" points="0 0.800921622 25.1907563 0.800921622 25.1907563 17.6704351 0 17.6704351"></polygon>
        <polygon id="path-3" points="0 133.862559 279.276211 133.862559 279.276211 0.000181081081 0 0.000181081081"></polygon>
    </defs>
    <g id="Page-1" stroke="none" stroke-width="1" fill="none" fill-rule="evenodd">
        <g id="Desktop-HD" transform="translate(-581.000000, -248.000000)">
            <g id="hero" transform="translate(570.000000, 248.000000)">
                <g id="logo" transform="translate(11.000000, 0.000000)">
                    <g id="Group-3" transform="translate(0.000000, 115.754451)">
                        <mask id="mask-2" fill="white">
                            <use xlink:href="#path-1"></use>
                        </mask>
                        <g id="Clip-2"></g>
                        <path d="M20.5036487,17.6704351 L20.5036487,7.30716486 C20.5036487,6.25327297 20.284337,5.49997568 19.8493387,5.05270541 C19.4107153,4.60543514 18.6766555,4.38270541 17.6435344,4.38270541 C16.6792879,4.38270541 15.9651656,4.58189459 15.5066048,4.98389459 C15.0462315,5.38589459 14.794295,6.05770541 14.7489826,6.99751622 L14.7489826,17.6704351 L10.3391865,17.6704351 L10.3391865,7.30716486 C10.3391865,6.25327297 10.1144374,5.49997568 9.66675154,5.05270541 C9.21725321,4.60543514 8.47594347,4.38270541 7.44282231,4.38270541 C6.40970115,4.38270541 5.67382889,4.60543514 5.23701802,5.05270541 C4.80201964,5.49997568 4.58270795,6.25327297 4.58270795,7.30716486 L4.58270795,17.6704351 L-0.00108749595,17.6704351 L-0.00108749595,6.82548919 C-0.00108749595,4.76116486 0.667722516,3.24008378 2.00171755,2.26405676 C3.33571259,1.28984054 5.16451829,0.800921622 7.48813464,0.800921622 C8.63725537,0.800921622 9.63956414,0.956651351 10.4896235,1.2663 C11.3396828,1.57594865 12.0664926,1.98338108 12.6646154,2.4885973 C13.2609257,2.00692162 13.9732355,1.60492162 14.8015449,1.2825973 C15.6316668,0.962083784 16.5977258,0.800921622 17.7015341,0.800921622 C20.0034006,0.800921622 21.8249563,1.28984054 23.1716388,2.26405676 C24.5165088,3.24008378 25.1907563,4.76116486 25.1907563,6.82548919 L25.1907563,17.6704351 L20.5036487,17.6704351 Z" id="Fill-1" fill="#FFFFFF" mask="url(#mask-2)"></path>
                    </g>
                    <path d="M41.1791218,122.649295 C41.1791218,121.892376 40.9253727,121.244105 40.4196871,120.704484 C39.915814,120.164862 39.1455044,119.895051 38.1123832,119.895051 C37.0774496,119.895051 36.2165153,120.141322 35.5277678,120.635673 C34.8372079,121.130024 34.3333348,121.800024 34.010711,122.649295 L41.1791218,122.649295 Z M45.7284799,133.356619 C45.4982932,133.401889 45.2209818,133.452592 44.9001705,133.512349 C44.5775467,133.568484 44.1751732,133.620997 43.6948624,133.666268 C43.2109267,133.711538 42.6381789,133.751376 41.9711814,133.785781 C41.3041838,133.820186 40.5248117,133.838295 39.6294401,133.838295 C38.0652584,133.838295 36.6478887,133.682565 35.3718934,133.372916 C34.0977106,133.063268 32.9939023,132.565295 32.0640932,131.875376 C31.1342842,131.187268 30.4165368,130.280051 29.9090387,129.155538 C29.4051656,128.032835 29.1514165,126.654808 29.1514165,125.025078 C29.1514165,123.924105 29.3689157,122.861159 29.8075391,121.839862 C30.2425375,120.818565 30.8587852,119.918592 31.6508448,119.138132 C32.4429043,118.357673 33.3908383,117.732943 34.4946467,117.260322 C35.5966426,116.791322 36.825513,116.555916 38.181258,116.555916 C39.2143791,116.555916 40.1967505,116.704403 41.1265595,117.003186 C42.0563685,117.30197 42.873803,117.760105 43.5734254,118.381214 C44.2730478,119.000511 44.8312957,119.786403 45.2445442,120.738889 C45.6596051,121.691376 45.8644169,122.833997 45.8644169,124.163132 L45.8644169,124.887457 C45.8644169,125.1627 45.8535419,125.427078 45.8299795,125.678781 L33.5648376,125.678781 C33.6337124,126.528051 33.8276492,127.228835 34.150273,127.779322 C34.4710843,128.329808 34.9078951,128.766214 35.4607056,129.086727 C36.009891,129.409051 36.6768886,129.631781 37.4580731,129.758538 C38.2392577,129.885295 39.111067,129.948673 40.0771259,129.948673 C41.5706203,129.948673 42.7886158,129.896159 43.7292998,129.792943 C44.6717963,129.689727 45.3369813,129.581078 45.7284799,129.465186 L45.7284799,133.356619 Z" id="Fill-4" fill="#FFFFFF"></path>
                    <path d="M49.8964894,133.424886 L49.8964894,123.972454 C49.8964894,121.603914 50.6196742,119.769562 52.0678563,118.471211 C53.5142259,117.171049 55.5242809,116.520968 58.0980214,116.520968 C58.4659575,116.520968 58.7867688,116.5264 59.0640803,116.539076 C59.3377667,116.549941 59.5860783,116.568049 59.8035775,116.589778 C60.0210767,116.613319 60.2349509,116.642292 60.4397626,116.674886 C60.6481994,116.711103 60.878386,116.740076 61.1303226,116.761805 L61.1303226,120.446805 C60.7170741,120.376184 60.2802632,120.320049 59.8217024,120.272968 C59.3613292,120.227697 58.9480807,120.205968 58.5801446,120.205968 C57.3385867,120.205968 56.3616528,120.510184 55.6511555,121.116805 C54.9388456,121.725238 54.5835969,122.627022 54.5835969,123.820346 L54.5835969,133.424886 L49.8964894,133.424886 Z" id="Fill-6" fill="#FFFFFF"></path>
                    <path d="M77.018276,133.56287 C76.5343403,133.631681 75.9905923,133.695059 75.3815946,133.751195 C74.7725968,133.809141 74.1345992,133.838114 73.4676017,133.838114 C71.907045,133.838114 70.4860503,133.687816 69.2118675,133.390843 C67.9376848,133.092059 66.8356889,132.615816 65.9040673,131.962114 C64.9724458,131.308411 64.256511,130.459141 63.7508253,129.414303 C63.2451397,128.369465 62.9932032,127.112762 62.9932032,125.644195 C62.9932032,124.106816 63.2505772,122.770438 63.7671378,121.633249 C64.2855108,120.49787 65.0014457,119.550816 65.9221923,118.793897 C66.8411263,118.035168 67.9376848,117.473816 69.2118675,117.106222 C70.4860503,116.738627 71.8834826,116.555735 73.3987269,116.555735 C74.0657245,116.555735 74.6964721,116.584708 75.2945949,116.642654 C75.8909052,116.698789 76.4328407,116.762168 76.9131514,116.830978 L76.9131514,120.514168 C76.5017154,120.423627 76.0576545,120.354816 75.5882188,120.307735 C75.1151581,120.262465 74.5369727,120.238924 73.8464128,120.238924 C71.8254828,120.238924 70.2921135,120.6536 69.2463049,121.47933 C68.2023088,122.305059 67.6803107,123.64687 67.6803107,125.506573 C67.6803107,127.159843 68.2077463,128.347735 69.2644298,129.070249 C70.3211134,129.792762 71.8707951,130.154924 73.9152875,130.154924 C74.582285,130.154924 75.1677204,130.131384 75.673406,130.086114 C76.1790916,130.040843 76.6267774,129.972032 77.018276,129.879681 L77.018276,133.56287 Z" id="Fill-8" fill="#FFFFFF"></path>
                    <path d="M86.1497983,121.478605 C85.4592383,122.306146 85.1166771,123.544741 85.1166771,125.1962 C85.1166771,126.84947 85.4592383,127.917849 86.1497983,128.745389 C86.8385457,129.571119 87.7701672,129.813768 88.9410379,129.813768 C89.9669091,129.813768 91.068905,128.864903 91.5310907,128.361497 C92.3485252,127.472389 92.7653986,126.297173 92.7653986,125.1962 C92.7653986,123.544741 92.4210249,122.306146 91.7322775,121.478605 C91.0417176,120.652876 90.1119085,120.2382 88.9410379,120.2382 C87.7701672,120.2382 86.8385457,120.652876 86.1497983,121.478605 Z M97.2114446,133.424524 L93.075335,133.424524 L93.075335,130.954578 C92.7327738,131.566632 92.0657762,132.446686 91.1685921,132.997173 C90.510657,133.400984 89.4231611,133.837389 88.2504779,133.837389 C87.0796073,133.837389 86.0174862,133.649065 85.0623023,133.270605 C84.1107433,132.892146 83.2896839,132.350714 82.599124,131.651741 C81.9103765,130.950957 81.375691,130.103497 80.9968799,129.10393 C80.6180688,128.106173 80.4295695,126.987092 80.4295695,125.746686 C80.4295695,124.439281 80.6180688,123.222416 80.9968799,122.097903 C81.375691,120.973389 81.9285015,120.004605 82.6516863,119.189741 C83.3748711,118.374876 84.2648053,117.732038 85.3214888,117.261227 C86.3781724,116.792227 87.5726055,116.555011 88.9066005,116.555011 C90.1699083,116.555011 91.3135915,116.734281 92.3340252,117.0892 C93.3580839,117.444119 94.2298932,117.978308 94.953078,118.689957 C95.6780753,119.401605 96.2326982,120.296146 96.6241968,121.375389 C97.0156953,122.454632 97.2114446,123.716768 97.2114446,125.161795 L97.2114446,133.424524 Z" id="Fill-10" fill="#FFFFFF"></path>
                    <path d="M101.518835,133.424886 L101.518835,123.972454 C101.518835,121.603914 102.24202,119.769562 103.690202,118.471211 C105.136571,117.171049 107.146626,116.520968 109.720367,116.520968 C110.088303,116.520968 110.409114,116.5264 110.686426,116.539076 C110.961925,116.549941 111.208424,116.568049 111.425923,116.589778 C111.645235,116.613319 111.857296,116.642292 112.063921,116.674886 C112.270545,116.711103 112.500731,116.740076 112.752668,116.761805 L112.752668,120.446805 C112.33942,120.376184 111.902609,120.320049 111.444048,120.272968 C110.983675,120.227697 110.570426,120.205968 110.20249,120.205968 C108.960932,120.205968 107.985811,120.510184 107.275313,121.116805 C106.561191,121.725238 106.205942,122.627022 106.205942,123.820346 L106.205942,133.424886 L101.518835,133.424886 Z" id="Fill-12" fill="#FFFFFF"></path>
                    <mask id="mask-4" fill="white">
                        <use xlink:href="#path-3"></use>
                    </mask>
                    <g id="Clip-15"></g>
                    <path d="M115.923444,133.424343 L120.610551,133.424343 L120.610551,116.967695 L115.923444,116.967695 L115.923444,133.424343 Z M118.299622,115.040992 C117.52025,115.040992 116.88769,114.760316 116.405567,114.197154 C115.923444,113.635803 115.682382,112.953127 115.682382,112.149127 C115.682382,111.345127 115.923444,110.675127 116.405567,110.133695 C116.88769,109.595884 117.531125,109.326073 118.335872,109.326073 C119.117057,109.326073 119.747805,109.595884 120.229928,110.133695 C120.712051,110.675127 120.953113,111.345127 120.953113,112.149127 C120.953113,112.953127 120.712051,113.635803 120.229928,114.197154 C119.747805,114.760316 119.104369,115.040992 118.299622,115.040992 Z" id="Fill-14" fill="#FFFFFF" mask="url(#mask-4)"></path>
                    <path d="M141.137037,132.133959 C141.137037,132.878203 140.939476,133.863284 139.295544,133.863284 C138.024987,133.863284 137.412364,133.359878 137.412364,132.133959 L137.412364,119.331527 L133.667753,119.331527 C133.01163,119.331527 131.915072,119.199338 131.915072,117.647473 C131.915072,116.421554 132.505945,115.918149 133.667753,115.918149 L144.881649,115.918149 C145.517834,115.918149 146.61258,116.048527 146.61258,117.623932 C146.61258,118.806392 146.065207,119.331527 144.881649,119.331527 L141.137037,119.331527 L141.137037,132.133959 Z" id="Fill-16" fill="#FFFFFF" mask="url(#mask-4)"></path>
                    <path d="M158.900921,122.789995 C159.515357,122.789995 160.588353,122.920373 160.588353,124.430589 C160.588353,125.613049 159.995667,126.094724 158.900921,126.094724 L153.314817,126.094724 L153.314817,129.421184 C153.314817,129.901049 153.447129,130.098427 153.994502,130.098427 L159.776356,130.098427 C160.501353,130.098427 161.529037,130.274076 161.529037,131.784292 C161.529037,132.943211 161.003414,133.511805 159.776356,133.511805 L152.593445,133.511805 C149.591956,133.511805 149.591956,131.521724 149.591956,130.471454 L149.591956,118.96013 C149.591956,117.84467 149.591956,115.917968 152.593445,115.917968 L159.491794,115.917968 C160.149729,115.917968 161.244475,116.048346 161.244475,117.623751 C161.244475,118.806211 160.675352,119.331346 159.491794,119.331346 L153.994502,119.331346 C153.468879,119.331346 153.314817,119.485265 153.314817,120.0104 L153.314817,122.789995 L158.900921,122.789995 Z" id="Fill-17" fill="#FFFFFF" mask="url(#mask-4)"></path>
                    <path d="M164.444613,124.736797 C164.444613,119.244608 168.475598,115.568662 173.818828,115.568662 C175.98657,115.568662 177.762814,116.224176 178.505936,116.662392 C179.29437,117.144068 179.29437,117.777851 179.29437,117.996959 C179.29437,119.00377 178.594748,119.834932 177.717501,119.834932 C177.41119,119.834932 177.257128,119.791473 176.666255,119.572365 C175.48451,119.155878 175.045886,118.982041 173.927578,118.982041 C169.987218,118.982041 168.169287,121.739905 168.169287,124.715068 C168.169287,128.041527 170.358779,130.448095 174.01639,130.448095 C174.322701,130.448095 175.48451,130.448095 176.996129,129.96823 C177.521752,129.792581 177.804501,129.725581 178.112625,129.725581 C178.81406,129.725581 179.689494,130.274257 179.689494,131.454905 C179.689494,132.286068 179.31612,132.724284 178.659998,132.986851 C176.470506,133.863284 174.409701,133.863284 173.775329,133.863284 C167.774163,133.863284 164.444613,129.660392 164.444613,124.736797" id="Fill-18" fill="#FFFFFF" mask="url(#mask-4)"></path>
                    <path d="M192.656796,122.526341 L192.656796,117.296719 C192.656796,116.181259 193.182419,115.567395 194.498289,115.567395 C195.723534,115.567395 196.381469,116.04907 196.381469,117.296719 L196.381469,132.134503 C196.381469,132.876935 196.183908,133.862016 194.541789,133.862016 C193.379981,133.862016 192.656796,133.46907 192.656796,132.134503 L192.656796,125.94153 L186.590381,125.94153 L186.590381,132.134503 C186.590381,132.876935 186.392819,133.862016 184.7507,133.862016 C183.632392,133.862016 182.86752,133.46907 182.86752,132.134503 L182.86752,117.296719 C182.86752,116.181259 183.41308,115.567395 184.705388,115.567395 C185.932446,115.567395 186.590381,116.027341 186.590381,117.296719 L186.590381,122.526341 L192.656796,122.526341 Z" id="Fill-19" fill="#FFFFFF" mask="url(#mask-4)"></path>
                    <path d="M208.146182,124.736797 C208.146182,119.244608 212.177167,115.568662 217.520397,115.568662 C219.688139,115.568662 221.464382,116.224176 222.207505,116.662392 C222.995939,117.144068 222.995939,117.777851 222.995939,117.996959 C222.995939,119.00377 222.296317,119.834932 221.41907,119.834932 C221.112759,119.834932 220.958697,119.791473 220.367824,119.572365 C219.186078,119.155878 218.747455,118.982041 217.629147,118.982041 C213.688786,118.982041 211.870856,121.739905 211.870856,124.715068 C211.870856,128.041527 214.060347,130.448095 217.717959,130.448095 C218.02427,130.448095 219.186078,130.448095 220.697698,129.96823 C221.223321,129.792581 221.50607,129.725581 221.814194,129.725581 C222.515628,129.725581 223.391063,130.274257 223.391063,131.454905 C223.391063,132.286068 223.017689,132.724284 222.361567,132.986851 C220.172075,133.863284 218.11127,133.863284 217.476897,133.863284 C211.475732,133.863284 208.146182,129.660392 208.146182,124.736797" id="Fill-20" fill="#FFFFFF" mask="url(#mask-4)"></path>
                    <path d="M235.13185,130.448638 C238.374401,130.448638 240.498643,127.734232 240.498643,124.715611 C240.498643,121.738638 238.396151,118.980773 235.13185,118.980773 C231.86755,118.980773 229.765058,121.738638 229.765058,124.715611 C229.765058,127.734232 231.891112,130.448638 235.13185,130.448638 M235.13185,115.567395 C240.192331,115.567395 244.223316,119.33207 244.223316,124.715611 C244.223316,130.120881 240.192331,133.862016 235.13185,133.862016 C230.114869,133.862016 226.042197,130.164341 226.042197,124.715611 C226.042197,119.288611 230.114869,115.567395 235.13185,115.567395" id="Fill-21" fill="#FFFFFF" mask="url(#mask-4)"></path>
                    <path d="M259.600509,117.296538 C259.600509,116.508835 259.819821,115.567214 261.442002,115.567214 C262.360936,115.567214 263.325183,115.808051 263.325183,117.296538 L263.325183,131.609186 C263.325183,132.177781 263.325183,133.861835 261.135691,133.861835 C259.711071,133.861835 259.076699,133.097673 258.397014,132.069132 L251.540352,121.694997 L251.540352,132.134322 C251.540352,132.943754 251.29929,133.861835 249.700671,133.861835 C248.759987,133.861835 247.817491,133.599268 247.817491,132.134322 L247.817491,117.821673 C247.817491,117.296538 247.817491,115.567214 250.006982,115.567214 C251.475102,115.567214 252.133037,116.378457 252.76741,117.363538 L259.600509,127.757592 L259.600509,117.296538 Z" id="Fill-22" fill="#FFFFFF" mask="url(#mask-4)"></path>
                    <path d="M276.77497,123.095841 C277.190031,123.095841 278.462402,123.095841 278.462402,124.736435 C278.462402,126.246651 277.476405,126.40057 276.77497,126.40057 L271.190679,126.40057 L271.190679,132.133597 C271.190679,133.272597 270.641493,133.862922 269.349185,133.862922 C268.209127,133.862922 267.466005,133.469976 267.466005,132.133597 L267.466005,118.959949 C267.466005,117.844489 267.466005,115.917786 270.467494,115.917786 L277.365843,115.917786 C277.804467,115.917786 279.118524,115.917786 279.118524,117.625381 C279.118524,118.82957 278.527651,119.331165 277.365843,119.331165 L271.868551,119.331165 C271.342928,119.331165 271.190679,119.485084 271.190679,120.010219 L271.190679,123.095841 L276.77497,123.095841 Z" id="Fill-23" fill="#FFFFFF" mask="url(#mask-4)"></path>
                    <path d="M194.341871,91.8823514 C188.260956,91.8823514 183.330974,86.9569459 183.330974,80.8816757 L183.330974,11.0006757 C183.330974,4.92540541 188.260956,0 194.341871,0 C200.422786,0 205.35458,4.92540541 205.35458,11.0006757 L205.35458,80.8816757 C205.35458,86.9569459 200.422786,91.8823514 194.341871,91.8823514" id="Fill-24" fill="#F9401C" mask="url(#mask-4)"></path>
                    <path d="M251.692057,36.2636595 C246.758451,36.2636595 242.745591,32.2527135 242.745591,27.3236865 C242.745591,22.3946595 246.758451,18.3855243 251.692057,18.3855243 C256.627477,18.3855243 260.640337,22.3946595 260.640337,27.3236865 C260.640337,32.2527135 256.627477,36.2636595 251.692057,36.2636595 M251.692057,55.6773622 C256.627477,55.6773622 260.640337,59.6883081 260.640337,64.6173351 C260.640337,69.5463622 256.627477,73.5554973 251.692057,73.5554973 C246.758451,73.5554973 242.745591,69.5463622 242.745591,64.6173351 C242.745591,59.6883081 246.758451,55.6773622 251.692057,55.6773622 M279.276392,27.5572811 C279.276392,12.3374162 266.926063,0.000362162162 251.692057,0.000362162162 C236.459864,0.000362162162 224.109535,12.3374162 224.109535,27.5572811 C224.109535,34.6321189 226.8029,41.0623081 231.187321,45.9406324 C226.8029,50.8207676 224.109535,57.2509568 224.109535,64.3257946 C224.109535,79.5456595 236.459864,91.8827135 251.692057,91.8827135 C266.926063,91.8827135 279.276392,79.5456595 279.276392,64.3257946 C279.276392,57.2509568 276.583027,50.8207676 272.196794,45.9406324 C276.583027,41.0623081 279.276392,34.6321189 279.276392,27.5572811" id="Fill-25" fill="#FFFFFF" mask="url(#mask-4)"></path>
                    <path d="M29.8704326,70.9166027 C32.9281087,78.8733054 28.9496861,87.7987919 20.9874032,90.8536297 C13.0214953,93.9084676 4.08590355,89.9337378 1.03003992,81.9770351 C-2.02763621,74.0203324 1.95078649,65.0948459 9.91488186,62.0400081 C17.8789772,58.9851703 26.8127565,62.9599 29.8704326,70.9166027" id="Fill-26" fill="#FFFFFF" mask="url(#mask-4)"></path>
                    <path d="M167.395171,76.0598486 C158.028206,79.6506865 147.521182,74.9769838 143.927008,65.6205243 C143.923383,65.6114703 143.921571,65.604227 143.917946,65.595173 L143.923383,65.5933622 L134.563668,41.2343351 C134.563668,41.2343351 125.162266,16.7865784 125.155016,16.7648486 C119.980347,3.29784865 104.858716,-3.4275027 91.3792038,1.74055135 C84.4427921,4.40244324 79.3007487,9.69725405 76.6400086,16.0423351 C76.8629453,15.9463622 77.075007,15.8359027 77.3051937,15.7489838 C86.6703463,12.1563351 97.1755572,16.8300378 100.771544,26.1864973 L110.116759,50.5093081 C110.118572,50.5093081 110.120384,50.5074973 110.122197,50.5074973 C110.122197,50.5074973 119.489162,74.9027405 119.519974,74.9806054 C124.69283,88.4476054 139.814461,95.1747676 153.295786,90.0049027 C160.19776,87.3556865 165.325304,82.0989027 167.996919,75.7936595 C167.79392,75.8787676 167.601795,75.980173 167.395171,76.0598486" id="Fill-27" fill="#FFFFFF" mask="url(#mask-4)"></path>
                    <path d="M106.312154,76.0598486 C96.9470018,79.6506865 86.4381659,74.9769838 82.8439918,65.6205243 C82.8403668,65.6114703 82.8385543,65.604227 82.8349293,65.595173 L82.8403668,65.5933622 L73.4806516,41.2343351 C73.4806516,41.2343351 64.0810616,16.7865784 64.0719991,16.7648486 C58.8991434,3.29784865 43.7775121,-3.4275027 30.2979998,1.74055135 C23.3597756,4.40244324 18.2177322,9.69725405 15.5588046,16.0423351 C15.7817413,15.9463622 15.993803,15.8359027 16.2221771,15.7489838 C25.5873298,12.1563351 36.0943532,16.8300378 39.6903398,26.1864973 L49.0337426,50.5093081 C49.0355551,50.5093081 49.0373676,50.5074973 49.0391801,50.5074973 C49.0391801,50.5074973 58.4061452,74.9027405 58.4369576,74.9806054 C63.6116258,88.4476054 78.7332571,95.1747676 92.2145819,90.0049027 C99.1165563,87.3556865 104.2441,82.0989027 106.915715,75.7936595 C106.712716,75.8787676 106.520591,75.980173 106.312154,76.0598486" id="Fill-28" fill="#FFFFFF" mask="url(#mask-4)"></path>
                </g>
            </g>
        </g>
    </g>
</svg>