<svg width="280" height="134" xmlns="http://www.w3.org/2000/svg" xmlns:xlink="http://www.w3.org/1999/xlink"><defs><path id="a" d="M0 .8h25.19v16.87H0z"/><path id="c" d="M0 133.863h279.276V0H0z"/></defs><g fill="none" fill-rule="evenodd"><g transform="translate(0 115.754)"><mask id="b" fill="#fff"><use xlink:href="#a"/></mask><path d="M20.504 17.67V7.307c0-1.054-.22-1.807-.655-2.254-.438-.448-1.172-.67-2.205-.67-.965 0-1.679.199-2.137.6-.46.403-.713 1.075-.758 2.015V17.67h-4.41V7.307c0-1.054-.225-1.807-.672-2.254-.45-.448-1.191-.67-2.224-.67-1.033 0-1.77.222-2.206.67-.435.447-.654 1.2-.654 2.254V17.67H-.001V6.825c0-2.064.669-3.585 2.003-4.56C3.336 1.29 5.165.8 7.488.8c1.15 0 2.152.156 3.002.465.85.31 1.576.717 2.175 1.223.596-.482 1.308-.884 2.137-1.206.83-.32 1.796-.482 2.9-.482 2.301 0 4.123.489 5.47 1.463 1.345.976 2.019 2.497 2.019 4.561V17.67h-4.687z" fill="#FFF" mask="url(#b)"/></g><path d="M41.18 122.65c0-.758-.255-1.406-.76-1.946-.504-.54-1.274-.809-2.308-.809-1.035 0-1.895.246-2.584.74-.69.495-1.195 1.165-1.517 2.014h7.168zm4.548 10.707c-.23.045-.507.096-.828.155-.322.056-.725.109-1.205.154-.484.046-1.057.085-1.724.12-.667.034-1.446.052-2.342.052-1.564 0-2.981-.155-4.257-.465-1.274-.31-2.378-.808-3.308-1.498-.93-.688-1.647-1.595-2.155-2.72-.504-1.122-.758-2.5-.758-4.13 0-1.1.218-2.164.657-3.185a8.36 8.36 0 0 1 1.843-2.702c.792-.78 1.74-1.405 2.844-1.878 1.102-.469 2.33-.704 3.686-.704 1.033 0 2.016.148 2.946.447.93.299 1.747.757 2.446 1.378.7.62 1.258 1.405 1.672 2.358.415.952.62 2.095.62 3.424v.724c0 .276-.011.54-.035.792H33.565c.069.85.263 1.55.585 2.1.321.55.758.987 1.31 1.308.55.322 1.217.545 1.998.672.781.126 1.653.19 2.62.19 1.493 0 2.71-.053 3.651-.156.943-.103 1.608-.212 2-.328v3.892zM49.896 133.425v-9.453c0-2.368.724-4.202 2.172-5.5 1.446-1.301 3.456-1.951 6.03-1.951.368 0 .689.005.966.018.274.01.522.029.74.05.217.024.431.053.636.086.208.036.438.065.69.087v3.685c-.413-.07-.85-.127-1.308-.174-.46-.045-.874-.067-1.242-.067-1.241 0-2.218.304-2.929.91-.712.61-1.067 1.511-1.067 2.704v9.605h-4.688zM77.018 133.563c-.484.069-1.027.132-1.636.188-.61.058-1.247.087-1.914.087-1.561 0-2.982-.15-4.256-.447-1.274-.299-2.376-.775-3.308-1.429a6.528 6.528 0 0 1-2.153-2.548c-.506-1.045-.758-2.301-.758-3.77 0-1.537.258-2.874.774-4.01.519-1.136 1.234-2.083 2.155-2.84.92-.759 2.016-1.32 3.29-1.688 1.274-.367 2.671-.55 4.187-.55.667 0 1.297.029 1.896.087.596.056 1.138.12 1.618.188v3.683c-.411-.09-.855-.16-1.325-.206a18.668 18.668 0 0 0-1.742-.07c-2.02 0-3.554.416-4.6 1.241-1.044.826-1.566 2.168-1.566 4.028 0 1.653.528 2.84 1.584 3.563 1.057.723 2.607 1.085 4.651 1.085.667 0 1.253-.024 1.758-.069a9.643 9.643 0 0 0 1.345-.206v3.683zM86.15 121.479c-.69.827-1.033 2.066-1.033 3.717 0 1.653.342 2.722 1.033 3.55.689.825 1.62 1.068 2.791 1.068 1.026 0 2.128-.95 2.59-1.453a4.743 4.743 0 0 0 1.234-3.165c0-1.651-.344-2.89-1.033-3.717-.69-.826-1.62-1.24-2.791-1.24-1.17 0-2.102.414-2.791 1.24zm11.061 11.946h-4.136v-2.47c-.342.612-1.01 1.492-1.906 2.042-.658.404-1.746.84-2.919.84-1.17 0-2.233-.188-3.188-.566a7.12 7.12 0 0 1-2.463-1.62c-.689-.7-1.223-1.548-1.602-2.547-.379-.998-.567-2.117-.567-3.357 0-1.308.188-2.525.567-3.65.379-1.124.932-2.092 1.655-2.907a7.712 7.712 0 0 1 2.67-1.929c1.056-.469 2.25-.706 3.585-.706 1.263 0 2.407.18 3.427.534a6.893 6.893 0 0 1 2.62 1.601c.724.712 1.279 1.606 1.67 2.685.392 1.08.587 2.342.587 3.787v8.263zM101.519 133.425v-9.453c0-2.368.723-4.202 2.171-5.5 1.447-1.301 3.457-1.951 6.03-1.951.368 0 .69.005.966.018.276.01.522.029.74.05.22.024.431.053.638.086a8 8 0 0 0 .689.087v3.685c-.414-.07-.85-.127-1.309-.174-.46-.045-.874-.067-1.242-.067-1.241 0-2.216.304-2.927.91-.714.61-1.07 1.511-1.07 2.704v9.605h-4.686z" fill="#FFF"/><mask id="d" fill="#fff"><use xlink:href="#c"/></mask><path d="M115.923 133.424h4.688v-16.456h-4.688v16.456zm2.377-18.383c-.78 0-1.412-.28-1.894-.844-.483-.561-.724-1.244-.724-2.048s.241-1.474.724-2.015c.482-.538 1.125-.808 1.93-.808.781 0 1.412.27 1.894.808.482.541.723 1.211.723 2.015s-.24 1.487-.723 2.048c-.482.563-1.126.844-1.93.844zM141.137 132.134c0 .744-.198 1.73-1.841 1.73-1.271 0-1.884-.504-1.884-1.73v-12.802h-3.744c-.656 0-1.753-.133-1.753-1.685 0-1.225.59-1.729 1.753-1.729h11.214c.636 0 1.73.13 1.73 1.706 0 1.182-.547 1.708-1.73 1.708h-3.745v12.802zM158.9 122.79c.615 0 1.688.13 1.688 1.64 0 1.183-.592 1.665-1.687 1.665h-5.586v3.326c0 .48.132.677.68.677h5.781c.725 0 1.753.176 1.753 1.686 0 1.16-.526 1.728-1.753 1.728h-7.183c-3.001 0-3.001-1.99-3.001-3.04V118.96c0-1.115 0-3.042 3.001-3.042h6.899c.658 0 1.752.13 1.752 1.706 0 1.182-.569 1.707-1.752 1.707h-5.497c-.526 0-.68.154-.68.68v2.779h5.586zM164.445 124.737c0-5.492 4.03-9.168 9.374-9.168 2.168 0 3.944.655 4.687 1.093.788.482.788 1.116.788 1.335 0 1.007-.7 1.838-1.576 1.838-.307 0-.46-.044-1.052-.263-1.181-.416-1.62-.59-2.738-.59-3.94 0-5.759 2.758-5.759 5.733 0 3.327 2.19 5.733 5.847 5.733.307 0 1.469 0 2.98-.48.526-.175.809-.242 1.117-.242.701 0 1.576.548 1.576 1.729 0 .831-.373 1.27-1.029 1.532-2.19.876-4.25.876-4.885.876-6 0-9.33-4.203-9.33-9.126M192.657 122.526v-5.23c0-1.115.525-1.729 1.841-1.729 1.226 0 1.883.482 1.883 1.73v14.838c0 .742-.197 1.727-1.84 1.727-1.161 0-1.884-.393-1.884-1.727v-6.193h-6.067v6.193c0 .742-.197 1.727-1.84 1.727-1.118 0-1.882-.393-1.882-1.727v-14.838c0-1.116.545-1.73 1.837-1.73 1.227 0 1.885.46 1.885 1.73v5.23h6.067zM208.146 124.737c0-5.492 4.031-9.168 9.374-9.168 2.168 0 3.944.655 4.688 1.093.788.482.788 1.116.788 1.335 0 1.007-.7 1.838-1.577 1.838-.306 0-.46-.044-1.051-.263-1.182-.416-1.62-.59-2.739-.59-3.94 0-5.758 2.758-5.758 5.733 0 3.327 2.19 5.733 5.847 5.733.306 0 1.468 0 2.98-.48.525-.175.808-.242 1.116-.242.702 0 1.577.548 1.577 1.729 0 .831-.373 1.27-1.03 1.532-2.189.876-4.25.876-4.884.876-6.001 0-9.33-4.203-9.33-9.126M235.132 130.449c3.242 0 5.367-2.715 5.367-5.733 0-2.977-2.103-5.735-5.367-5.735s-5.367 2.758-5.367 5.735c0 3.018 2.126 5.733 5.367 5.733m0-14.882c5.06 0 9.091 3.765 9.091 9.149 0 5.405-4.03 9.146-9.091 9.146-5.017 0-9.09-3.698-9.09-9.146 0-5.427 4.073-9.149 9.09-9.149M259.6 117.297c0-.788.22-1.73 1.842-1.73.919 0 1.883.241 1.883 1.73v14.312c0 .569 0 2.253-2.19 2.253-1.424 0-2.058-.764-2.738-1.793l-6.857-10.374v10.44c0 .809-.24 1.727-1.84 1.727-.94 0-1.883-.263-1.883-1.728v-14.312c0-.525 0-2.255 2.19-2.255 1.468 0 2.126.811 2.76 1.797l6.834 10.394v-10.461zM276.775 123.096c.415 0 1.687 0 1.687 1.64 0 1.51-.986 1.665-1.687 1.665h-5.584v5.733c0 1.139-.55 1.729-1.842 1.729-1.14 0-1.883-.393-1.883-1.73V118.96c0-1.116 0-3.042 3.001-3.042h6.899c.438 0 1.753 0 1.753 1.707 0 1.205-.591 1.706-1.753 1.706h-5.497c-.526 0-.678.154-.678.68v3.085h5.584z" fill="#FFF" mask="url(#d)"/><path d="M194.342 91.882c-6.081 0-11.011-4.925-11.011-11V11c0-6.076 4.93-11.001 11.01-11.001 6.082 0 11.014 4.925 11.014 11v69.882c0 6.075-4.932 11-11.013 11" fill="#F9401C" mask="url(#d)"/><path d="M251.692 36.264c-4.934 0-8.946-4.011-8.946-8.94 0-4.93 4.012-8.938 8.946-8.938 4.935 0 8.948 4.009 8.948 8.938s-4.013 8.94-8.948 8.94m0 19.413c4.935 0 8.948 4.011 8.948 8.94 0 4.93-4.013 8.938-8.948 8.938-4.934 0-8.946-4.009-8.946-8.938s4.012-8.94 8.946-8.94m27.584-28.12c0-15.22-12.35-27.557-27.584-27.557-15.232 0-27.582 12.337-27.582 27.557 0 7.075 2.693 13.505 7.077 18.384-4.384 4.88-7.077 11.31-7.077 18.385 0 15.22 12.35 27.557 27.582 27.557 15.234 0 27.584-12.337 27.584-27.557 0-7.075-2.693-13.505-7.08-18.385 4.387-4.879 7.08-11.309 7.08-18.384M29.87 70.917c3.058 7.956-.92 16.882-8.883 19.937-7.966 3.054-16.901-.92-19.957-8.877-3.058-7.957.92-16.882 8.885-19.937 7.964-3.055 16.898.92 19.955 8.877M167.395 76.06c-9.367 3.59-19.874-1.083-23.468-10.44-.004-.009-.005-.016-.01-.025l.006-.002-9.36-24.359-9.408-24.47C119.98 3.299 104.859-3.427 91.379 1.742 84.443 4.402 79.301 9.697 76.64 16.042c.223-.096.435-.206.665-.293 9.365-3.593 19.87 1.081 23.467 10.437l9.345 24.323.005-.002 9.398 24.474c5.173 13.467 20.294 20.194 33.776 15.024 6.902-2.65 12.03-7.906 14.7-14.211-.202.085-.394.186-.6.266M106.312 76.06c-9.365 3.59-19.874-1.083-23.468-10.44-.004-.009-.005-.016-.01-.025l.006-.002-9.36-24.359-9.408-24.47C58.899 3.299 43.778-3.427 30.298 1.742c-6.938 2.661-12.08 7.956-14.74 14.301.224-.096.436-.206.664-.293 9.365-3.593 19.872 1.081 23.468 10.437l9.344 24.323.005-.002 9.398 24.474c5.175 13.467 20.296 20.194 33.778 15.024 6.902-2.65 12.03-7.906 14.7-14.211-.202.085-.394.186-.603.266" fill="#FFF" mask="url(#d)"/></g></svg>