<svg width="20" height="16" xmlns="http://www.w3.org/2000/svg"><path d="M17.965 4.505c0-.175 0-.35-.012-.522A8.265 8.265 0 0 0 20 1.89a8.273 8.273 0 0 1-2.356.637A4.07 4.07 0 0 0 19.448.293a8.303 8.303 0 0 1-2.606.98 4.153 4.153 0 0 0-5.806-.175 4.006 4.006 0 0 0-1.187 3.86A11.717 11.717 0 0 1 1.392.738 4.005 4.005 0 0 0 2.663 6.13 4.122 4.122 0 0 1 .8 5.625v.051C.801 7.6 2.178 9.255 4.092 9.636a4.144 4.144 0 0 1-1.852.069c.537 1.646 2.078 2.773 3.833 2.806A8.315 8.315 0 0 1 0 14.185a11.754 11.754 0 0 0 6.29 1.812C13.837 16 17.965 9.844 17.965 4.505z" fill="#FFF" fill-rule="evenodd"/></svg>