<?xml version="1.0" encoding="UTF-8"?>
<svg width="20px" height="16px" viewBox="0 0 20 16" version="1.1" xmlns="http://www.w3.org/2000/svg" xmlns:xlink="http://www.w3.org/1999/xlink">
    <!-- Generator: Sketch 51.2 (57519) - http://www.bohemiancoding.com/sketch -->
    <title>profile_icon_twitter</title>
    <desc>Created with Sketch.</desc>
    <defs></defs>
    <g id="Page-1" stroke="none" stroke-width="1" fill="none" fill-rule="evenodd">
        <g id="Desktop-HD" transform="translate(-1144.000000, -32.000000)" fill="#FFFFFF">
            <g id="nav">
                <g id="Group-5" transform="translate(1134.000000, 20.000000)">
                    <path d="M27.965,16.5054614 C27.965,16.3302127 27.965,16.1559486 27.953,15.9826691 C28.756,15.4116342 29.449,14.7027633 30,13.8914999 C29.252,14.2183681 28.457,14.4329985 27.644,14.5275146 C28.5,14.0224441 29.141,13.2289025 29.448,12.2926022 C28.642,12.7632137 27.761,13.0950047 26.842,13.2732069 C25.288,11.646742 22.689,11.5679786 21.036,13.0979583 C19.971,14.0844703 19.518,15.5553774 19.849,16.9583511 C16.55,16.794917 13.476,15.2609991 11.392,12.7376156 C10.303,14.5836336 10.86,16.9445675 12.663,18.1299572 C12.01,18.1112509 11.371,17.9379713 10.8,17.6248867 L10.8,17.6760829 C10.801,19.5988952 12.178,21.2548964 14.092,21.6359145 C13.488,21.7983641 12.854,21.8219931 12.24,21.7048325 C12.777,23.3509883 14.318,24.47829 16.073,24.5107799 C14.62,25.6351279 12.825,26.2455445 10.977,26.2435754 C10.651,26.2425909 10.325,26.2238846 10,26.1854874 C11.877,27.3708771 14.06,28 16.29,27.9970464 C23.837,28 27.965,21.8436531 27.965,16.5054614 Z" id="profile_icon_twitter"></path>
                </g>
            </g>
        </g>
    </g>
</svg>