<?xml version="1.0" encoding="UTF-8"?>
<svg width="28px" height="23px" viewBox="0 0 28 23" version="1.1" xmlns="http://www.w3.org/2000/svg" xmlns:xlink="http://www.w3.org/1999/xlink">
    <!-- Generator: Sketch 51.2 (57519) - http://www.bohemiancoding.com/sketch -->
    <title>icon_tw</title>
    <desc>Created with Sketch.</desc>
    <defs></defs>
    <g id="Page-1" stroke="none" stroke-width="1" fill="none" fill-rule="evenodd">
        <g id="Desktop-HD" transform="translate(-776.000000, -1367.000000)" fill="#F9401C">
            <g id="news" transform="translate(260.000000, 1018.000000)">
                <g id="button" transform="translate(345.000000, 330.000000)">
                    <path d="M179.805888,41.7027027 C190.372304,41.7027027 196.150608,32.9691491 196.150608,25.3961064 C196.150608,25.1479363 196.145568,24.9008836 196.134256,24.6551718 C197.255824,23.8463004 198.230784,22.8369711 199,21.6877458 C197.97072,22.1438603 196.862928,22.4513632 195.70104,22.5900301 C196.887008,21.8806056 197.79768,20.7578622 198.227088,19.4196879 C197.116832,20.0761486 195.887968,20.5537168 194.579472,20.8107142 C193.531152,19.6967981 192.038192,19 190.386192,19 C187.213456,19 184.640704,21.5667335 184.640704,24.7308184 C184.640704,25.1806756 184.691216,25.6179063 184.789776,26.0375942 C180.015552,25.7981397 175.78184,23.5173437 172.948912,20.0496667 C172.455104,20.8964173 172.170848,21.8806056 172.170848,22.9302723 C172.170848,24.9186499 173.18512,26.6739421 174.727248,27.7008143 C173.784992,27.6718742 172.899632,27.4135359 172.125376,26.9837916 C172.124144,27.0078153 172.124144,27.0317272 172.124144,27.0568683 C172.124144,29.832887 174.104528,32.1501096 176.732944,32.6756134 C176.250448,32.8065704 175.742752,32.8771888 175.218592,32.8771888 C174.848432,32.8771888 174.488464,32.8406504 174.138688,32.7738311 C174.869936,35.050828 176.990544,36.7077908 179.50528,36.7544973 C177.538672,38.2917886 175.061904,39.2078167 172.370432,39.2078167 C171.906864,39.2078167 171.44968,39.1813348 171,39.128371 C173.542512,40.7539354 176.561136,41.7027027 179.805888,41.7027027" id="icon_tw"></path>
                </g>
            </g>
        </g>
    </g>
</svg>