<?xml version="1.0" encoding="utf-8"?>
<!-- Generator: Adobe Illustrator 21.1.0, SVG Export Plug-In . SVG Version: 6.00 Build 0)  -->
<svg version="1.1" id="レイヤー_1" xmlns="http://www.w3.org/2000/svg" xmlns:xlink="http://www.w3.org/1999/xlink" x="0px"
	 y="0px" viewBox="0 0 309.7 89.1" style="enable-background:new 0 0 309.7 89.1;" xml:space="preserve">
<style type="text/css">
	.st0{fill:#FFFFFF;}
</style>
<g>
	<polygon id="Fill-13_5_" class="st0" points="134.7,19.1 211.1,19.1 211.1,0 134.7,0 	"/>
	<polygon id="Fill-14_5_" class="st0" points="158,89.1 188.8,89.1 188.8,24.4 158,24.4 	"/>
	<polygon id="Fill-15_5_" class="st0" points="243.8,0 225.9,17.8 225.9,71.3 243.8,89.1 255.6,89.1 255.6,0 	"/>
	<polygon id="Fill-16_5_" class="st0" points="260.9,0 260.9,18 280.4,18 280.4,36.1 309.7,36.1 309.7,18 292.2,0 	"/>
	<polygon id="Fill-17_5_" class="st0" points="280.4,58.3 280.4,71.3 260.9,71.3 260.9,89.1 292.2,89.1 309.7,71.3 309.7,58.3 	"/>
	<polygon id="Fill-18_3_" class="st0" points="43.2,0 33.9,9.4 33.9,17.8 45.9,17.8 45.9,89.1 75.3,89.1 75.3,9.5 65.9,0 	"/>
	<polygon id="Fill-19_5_" class="st0" points="89.7,0 80.6,9.5 80.6,17.8 92.6,17.8 92.6,89.1 122,89.1 122,14.6 107.6,0 	"/>
	<polygon id="Fill-20_3_" class="st0" points="14.5,0 0,14.6 0,89.1 29.7,89.1 29.7,17.8 29.7,0 	"/>
</g>
</svg>
