<svg width="80" height="28" xmlns="http://www.w3.org/2000/svg"><g fill="none" fill-rule="evenodd"><path d="M55.043 27.534c-1.722 0-3.119-1.423-3.119-3.178V4.158c0-1.758 1.397-3.18 3.12-3.18 1.721 0 3.118 1.422 3.118 3.18v20.198c0 1.755-1.397 3.178-3.119 3.178" fill="#F9401C"/><path d="M71.287 11.459c-1.397 0-2.534-1.16-2.534-2.584 0-1.425 1.137-2.583 2.534-2.583 1.397 0 2.534 1.158 2.534 2.583 0 1.425-1.137 2.584-2.534 2.584m0 5.61c1.397 0 2.534 1.16 2.534 2.585 0 1.424-1.137 2.583-2.534 2.583-1.397 0-2.534-1.159-2.534-2.583 0-1.424 1.137-2.584 2.534-2.584m7.811-8.128c0-4.4-3.497-7.964-7.811-7.964s-7.813 3.565-7.813 7.964c0 2.044.763 3.904 2.005 5.314a8.014 8.014 0 0 0-2.005 5.314c0 4.398 3.499 7.964 7.813 7.964s7.811-3.566 7.811-7.964a8.013 8.013 0 0 0-2.003-5.314 8.015 8.015 0 0 0 2.003-5.314M8.46 21.475c.866 2.3-.26 4.88-2.515 5.762-2.257.883-4.787-.265-5.653-2.565-.866-2.3.26-4.88 2.516-5.762 2.255-.884 4.787.265 5.652 2.565M47.41 22.962c-2.652 1.038-5.628-.313-6.646-3.018-.001-.002-.001-.005-.003-.007h.002l-2.651-7.042-2.665-7.071C33.982 1.932 29.7-.014 25.88 1.48c-1.964.77-3.42 2.3-4.174 4.134.062-.027.123-.06.187-.084 2.654-1.04 5.63.312 6.648 3.017l2.647 7.03.001-.001 2.661 7.073c1.466 3.892 5.749 5.837 9.567 4.344 1.955-.766 3.407-2.285 4.164-4.108-.058.025-.113.053-.171.077M30.11 22.962c-2.652 1.038-5.628-.313-6.646-3.018-.001-.002-.001-.005-.003-.007h.002l-2.651-7.042-2.665-7.071C16.682 1.932 12.399-.014 8.58 1.48c-1.965.77-3.42 2.3-4.174 4.134.062-.027.123-.06.188-.084 2.653-1.04 5.628.312 6.647 3.017l2.647 7.03.001-.001 2.662 7.073c1.465 3.892 5.748 5.837 9.565 4.344 1.956-.766 3.408-2.285 4.165-4.108-.058.025-.113.053-.171.077" fill="#FFF"/></g></svg>