<?xml version="1.0" encoding="UTF-8"?>
<svg width="16px" height="17px" viewBox="0 0 16 17" version="1.1" xmlns="http://www.w3.org/2000/svg" xmlns:xlink="http://www.w3.org/1999/xlink">
    <!-- Generator: Sketch 52.2 (67145) - http://www.bohemiancoding.com/sketch -->
    <title>icn_slide</title>
    <desc>Created with Sketch.</desc>
    <g id="9/26-Update" stroke="none" stroke-width="1" fill="none" fill-rule="evenodd">
        <g id="Detail" transform="translate(-404.000000, -462.000000)" fill="#202020">
            <g id="card" transform="translate(320.000000, 192.000000)">
                <g id="Group" transform="translate(60.000000, 258.000000)">
                    <g id="icn_slide" transform="translate(24.000000, 12.000000)">
                        <path d="M15.4666667,10.1333333 L14.9333333,10.1333333 L14.9333333,2.66666667 L1.06666667,2.66666667 L1.06666667,10.1333333 L0.533333333,10.1333333 C0.238781467,10.1333333 0,10.3721148 0,10.6666667 C-5.92118946e-17,10.9612185 0.238781467,11.2 0.533333333,11.2 L6.8,11.2 L3.33333333,15.12 C3.13451082,15.3409139 3.15241943,15.6811775 3.37333333,15.88 C3.59424723,16.0788225 3.93451082,16.0609139 4.13333333,15.84 L7.46666667,12.08 L7.46666667,16 C7.46666667,16.2945519 7.70544813,16.5333333 8,16.5333333 C8.29455187,16.5333333 8.53333333,16.2945519 8.53333333,16 L8.53333333,12.08 L11.8666667,15.8133333 C12.0654892,16.0342472 12.4057528,16.0521558 12.6266667,15.8533333 C12.8475806,15.6545108 12.8654892,15.3142472 12.6666667,15.0933333 L9.2,11.2 L15.4666667,11.2 C15.7612185,11.2 16,10.9612185 16,10.6666667 C16,10.3721148 15.7612185,10.1333333 15.4666667,10.1333333 Z" id="Path"></path>
                        <polygon id="Path" points="1.06666667 0 14.9333333 0 14.9333333 1.6 1.06666667 1.6"></polygon>
                    </g>
                </g>
            </g>
        </g>
    </g>
</svg>