<svg width="629px" height="96px" viewBox="0 0 629 96" version="1.1" xmlns="http://www.w3.org/2000/svg" xmlns:xlink="http://www.w3.org/1999/xlink">
    <g id="Page-1" stroke="none" stroke-width="1" fill="none" fill-rule="evenodd">
        <g id="mtc_01_fix" transform="translate(-250.000000, -632.000000)" fill="#C4C6CE">
            <g id="hero" transform="translate(249.000000, 80.000000)">
                <path d="M1.4921875,590.599609 C1.4921875,578.034442 4.86129443,568.350294 11.5996094,561.546875 C17.4590137,555.622366 24.9133662,552.660156 33.9628906,552.660156 C46.0723262,552.660156 54.9264043,556.631471 60.5253906,564.574219 C63.617854,569.033876 65.2779937,573.509743 65.5058594,578.001953 L50.4667969,578.001953 C49.4902295,574.551415 48.2369868,571.947274 46.7070312,570.189453 C43.9726426,567.064437 39.9199487,565.501953 34.5488281,565.501953 C29.0800508,565.501953 24.7669429,567.707335 21.609375,572.118164 C18.4518071,576.528993 16.8730469,582.770793 16.8730469,590.84375 C16.8730469,598.916707 18.5413245,604.963196 21.8779297,608.983398 C25.2145349,613.003601 29.4544014,615.013672 34.5976562,615.013672 C39.8711201,615.013672 43.8912622,613.288429 46.6582031,609.837891 C48.1881587,607.982413 49.4576772,605.199237 50.4667969,601.488281 L65.359375,601.488281 C64.0572852,609.333373 60.7288679,615.713517 55.3740234,620.628906 C50.019179,625.544295 43.158896,628.001953 34.7929688,628.001953 C24.4413545,628.001953 16.303415,624.681674 10.3789062,618.041016 C4.45439746,611.367805 1.4921875,602.220761 1.4921875,590.599609 Z M99.5878906,616.185547 C103.656921,616.185547 106.78189,614.736994 108.962891,611.839844 C111.143891,608.942694 112.234375,604.824896 112.234375,599.486328 C112.234375,594.14776 111.143891,590.0381 108.962891,587.157227 C106.78189,584.276353 103.656921,582.835938 99.5878906,582.835938 C95.5188599,582.835938 92.3857532,584.276353 90.1884766,587.157227 C87.9912,590.0381 86.8925781,594.14776 86.8925781,599.486328 C86.8925781,604.824896 87.9912,608.942694 90.1884766,611.839844 C92.3857532,614.736994 95.5188599,616.185547 99.5878906,616.185547 Z M126.833984,599.486328 C126.833984,607.298867 124.587913,613.980115 120.095703,619.530273 C115.603493,625.080431 108.7839,627.855469 99.6367188,627.855469 C90.4895376,627.855469 83.6699443,625.080431 79.1777344,619.530273 C74.6855244,613.980115 72.4394531,607.298867 72.4394531,599.486328 C72.4394531,591.803998 74.6855244,585.147164 79.1777344,579.515625 C83.6699443,573.884086 90.4895376,571.068359 99.6367188,571.068359 C108.7839,571.068359 115.603493,573.884086 120.095703,579.515625 C124.587913,585.147164 126.833984,591.803998 126.833984,599.486328 Z M196.267578,571.605469 C198.61134,571.605469 200.922515,572.061193 203.201172,572.972656 C205.479829,573.884119 207.546866,575.479155 209.402344,577.757812 C210.899747,579.613291 211.908852,581.891914 212.429688,584.59375 C212.75521,586.384124 212.917969,589.00454 212.917969,592.455078 L212.820312,626 L198.5625,626 L198.5625,592.113281 C198.5625,590.095042 198.236982,588.434902 197.585938,587.132812 C196.348952,584.658842 194.070329,583.421875 190.75,583.421875 C186.908835,583.421875 184.255867,585.016911 182.791016,588.207031 C182.042314,589.899748 181.667969,591.934233 181.667969,594.310547 L181.667969,626 L167.654297,626 L167.654297,594.310547 C167.654297,591.152979 167.328779,588.85808 166.677734,587.425781 C165.505854,584.854154 163.210955,583.568359 159.792969,583.568359 C155.821595,583.568359 153.152351,584.854154 151.785156,587.425781 C151.036455,588.890632 150.662109,591.0716 150.662109,593.96875 L150.662109,626 L136.550781,626 L136.550781,572.875 L150.076172,572.875 L150.076172,580.638672 C151.801441,577.871731 153.429029,575.90235 154.958984,574.730469 C157.660821,572.647125 161.160135,571.605469 165.457031,571.605469 C169.526062,571.605469 172.81379,572.500642 175.320312,574.291016 C177.338552,575.95118 178.868484,578.08332 179.910156,580.6875 C181.733082,577.562484 183.995429,575.267585 186.697266,573.802734 C189.561863,572.337883 192.751936,571.605469 196.267578,571.605469 Z M240.017578,566.429688 L225.90625,566.429688 L225.90625,553.587891 L240.017578,553.587891 L240.017578,566.429688 Z M225.90625,572.777344 L240.017578,572.777344 L240.017578,626 L225.90625,626 L225.90625,572.777344 Z M282.986328,571.507812 C288.487658,571.507812 292.987938,572.948228 296.487305,575.829102 C299.986671,578.709975 301.736328,583.486946 301.736328,590.160156 L301.736328,626 L287.478516,626 L287.478516,593.626953 C287.478516,590.82746 287.10417,588.679044 286.355469,587.181641 C284.988274,584.447252 282.384134,583.080078 278.542969,583.080078 C273.822893,583.080078 270.583993,585.082011 268.826172,589.085938 C267.914709,591.201833 267.458984,593.903629 267.458984,597.191406 L267.458984,626 L253.591797,626 L253.591797,572.875 L267.019531,572.875 L267.019531,580.638672 C268.809905,577.904283 270.502596,575.934902 272.097656,574.730469 C274.962254,572.582021 278.591775,571.507812 282.986328,571.507812 Z M337.429688,614.574219 C340.684912,614.574219 343.435536,613.34539 345.681641,610.887695 C347.927746,608.430001 349.050781,604.515652 349.050781,599.144531 C349.050781,594.098933 347.984711,590.257826 345.852539,587.621094 C343.720367,584.984362 340.86395,583.666016 337.283203,583.666016 C332.400366,583.666016 329.031259,585.960915 327.175781,590.550781 C326.199214,592.9922 325.710938,596.003237 325.710938,599.583984 C325.710938,602.676448 326.231766,605.427071 327.273438,607.835938 C329.161468,612.328147 332.546851,614.574219 337.429688,614.574219 Z M333.962891,571.507812 C336.632175,571.507812 338.959625,571.914709 340.945312,572.728516 C344.330746,574.128262 347.065094,576.699851 349.148438,580.443359 L349.148438,572.777344 L362.673828,572.777344 L362.673828,623.265625 C362.673828,630.134149 361.518241,635.309878 359.207031,638.792969 C355.235657,644.782582 347.618546,647.777344 336.355469,647.777344 C329.552049,647.777344 324.001975,646.442722 319.705078,643.773438 C315.408182,641.104153 313.031903,637.116563 312.576172,631.810547 L327.712891,631.810547 C328.103518,633.438159 328.738277,634.610022 329.617188,635.326172 C331.114591,636.595709 333.637352,637.230469 337.185547,637.230469 C342.198593,637.230469 345.551424,635.554053 347.244141,632.201172 C348.350917,630.052724 348.904297,626.439479 348.904297,621.361328 L348.904297,617.943359 C347.569655,620.222017 346.137377,621.930984 344.607422,623.070312 C341.840481,625.186208 338.243512,626.244141 333.816406,626.244141 C326.980435,626.244141 321.519877,623.843448 317.43457,619.041992 C313.349263,614.240536 311.306641,607.738322 311.306641,599.535156 C311.306641,591.62496 313.276022,584.976264 317.214844,579.588867 C321.153666,574.20147 326.736292,571.507812 333.962891,571.507812 Z M414.285156,609.007812 C414.578126,611.481783 415.212886,613.239578 416.189453,614.28125 C417.914722,616.136728 421.104794,617.064453 425.759766,617.064453 C428.494154,617.064453 430.666984,616.657556 432.27832,615.84375 C433.889656,615.029944 434.695312,613.809253 434.695312,612.181641 C434.695312,610.619133 434.044277,609.430994 432.742188,608.617188 C431.440098,607.803381 426.606162,606.403656 418.240234,604.417969 C412.218069,602.920565 407.970064,601.048839 405.496094,598.802734 C403.022123,596.589182 401.785156,593.399109 401.785156,589.232422 C401.785156,584.317033 403.713848,580.093442 407.571289,576.561523 C411.42873,573.029605 416.856736,571.263672 423.855469,571.263672 C430.496127,571.263672 435.907857,572.590156 440.09082,575.243164 C444.273784,577.896172 446.674476,582.477832 447.292969,588.988281 L433.376953,588.988281 C433.18164,587.197908 432.677087,585.781906 431.863281,584.740234 C430.333326,582.852204 427.729185,581.908203 424.050781,581.908203 C421.023422,581.908203 418.866868,582.380204 417.581055,583.324219 C416.295241,584.268234 415.652344,585.374994 415.652344,586.644531 C415.652344,588.239591 416.335931,589.395179 417.703125,590.111328 C419.070319,590.86003 423.904255,592.145824 432.205078,593.96875 C437.73896,595.27084 441.889309,597.240221 444.65625,599.876953 C447.390639,602.546237 448.757812,605.882792 448.757812,609.886719 C448.757812,615.160183 446.796569,619.465153 442.874023,622.801758 C438.951478,626.138363 432.888713,627.806641 424.685547,627.806641 C416.31962,627.806641 410.142924,626.040708 406.155273,622.508789 C402.167623,618.97687 400.173828,614.47659 400.173828,609.007812 L414.285156,609.007812 Z M482.9375,616.185547 C487.006531,616.185547 490.1315,614.736994 492.3125,611.839844 C494.4935,608.942694 495.583984,604.824896 495.583984,599.486328 C495.583984,594.14776 494.4935,590.0381 492.3125,587.157227 C490.1315,584.276353 487.006531,582.835938 482.9375,582.835938 C478.868469,582.835938 475.735363,584.276353 473.538086,587.157227 C471.340809,590.0381 470.242188,594.14776 470.242188,599.486328 C470.242188,604.824896 471.340809,608.942694 473.538086,611.839844 C475.735363,614.736994 478.868469,616.185547 482.9375,616.185547 Z M510.183594,599.486328 C510.183594,607.298867 507.937522,613.980115 503.445312,619.530273 C498.953103,625.080431 492.133509,627.855469 482.986328,627.855469 C473.839147,627.855469 467.019554,625.080431 462.527344,619.530273 C458.035134,613.980115 455.789062,607.298867 455.789062,599.486328 C455.789062,591.803998 458.035134,585.147164 462.527344,579.515625 C467.019554,573.884086 473.839147,571.068359 482.986328,571.068359 C492.133509,571.068359 498.953103,573.884086 503.445312,579.515625 C507.937522,585.147164 510.183594,591.803998 510.183594,599.486328 Z M544.021484,616.185547 C548.090515,616.185547 551.215484,614.736994 553.396484,611.839844 C555.577485,608.942694 556.667969,604.824896 556.667969,599.486328 C556.667969,594.14776 555.577485,590.0381 553.396484,587.157227 C551.215484,584.276353 548.090515,582.835938 544.021484,582.835938 C539.952454,582.835938 536.819347,584.276353 534.62207,587.157227 C532.424794,590.0381 531.326172,594.14776 531.326172,599.486328 C531.326172,604.824896 532.424794,608.942694 534.62207,611.839844 C536.819347,614.736994 539.952454,616.185547 544.021484,616.185547 Z M571.267578,599.486328 C571.267578,607.298867 569.021507,613.980115 564.529297,619.530273 C560.037087,625.080431 553.217494,627.855469 544.070312,627.855469 C534.923131,627.855469 528.103538,625.080431 523.611328,619.530273 C519.119118,613.980115 516.873047,607.298867 516.873047,599.486328 C516.873047,591.803998 519.119118,585.147164 523.611328,579.515625 C528.103538,573.884086 534.923131,571.068359 544.070312,571.068359 C553.217494,571.068359 560.037087,573.884086 564.529297,579.515625 C569.021507,585.147164 571.267578,591.803998 571.267578,599.486328 Z M610.720703,571.507812 C616.222033,571.507812 620.722313,572.948228 624.22168,575.829102 C627.721046,578.709975 629.470703,583.486946 629.470703,590.160156 L629.470703,626 L615.212891,626 L615.212891,593.626953 C615.212891,590.82746 614.838545,588.679044 614.089844,587.181641 C612.722649,584.447252 610.118509,583.080078 606.277344,583.080078 C601.557268,583.080078 598.318368,585.082011 596.560547,589.085938 C595.649084,591.201833 595.193359,593.903629 595.193359,597.191406 L595.193359,626 L581.326172,626 L581.326172,572.875 L594.753906,572.875 L594.753906,580.638672 C596.54428,577.904283 598.236971,575.934902 599.832031,574.730469 C602.696629,572.582021 606.32615,571.507812 610.720703,571.507812 Z" id="Coming-soon"></path>
            </g>
        </g>
    </g>
</svg>
