<svg width="272px" height="32px" viewBox="0 0 272 32" version="1.1" xmlns="http://www.w3.org/2000/svg" xmlns:xlink="http://www.w3.org/1999/xlink">
    <g id="Page-1" stroke="none" stroke-width="1" fill="none" fill-rule="evenodd">
        <g id="mtc_01_fix" transform="translate(-250.000000, -81.000000)" fill="#121C3B">
            <g id="hero" transform="translate(249.000000, 80.000000)">
                <path d="M1.3125,32 C1.36718777,29.8671768 1.82519101,27.9189541 2.68652344,26.1552734 C3.52051198,24.1728417 5.48924229,22.0742298 8.59277344,19.859375 C11.2861463,17.931631 13.0292929,16.5507854 13.8222656,15.7167969 C15.0390686,14.4179623 15.6474609,12.9961015 15.6474609,11.4511719 C15.6474609,10.1933531 15.2988316,9.14746511 14.6015625,8.31347656 C13.9042934,7.47948802 12.9062565,7.0625 11.6074219,7.0625 C9.83006924,7.0625 8.6201204,7.72557931 7.97753906,9.05175781 C7.60839659,9.81738664 7.38964878,11.0341713 7.32128906,12.7021484 L1.640625,12.7021484 C1.7363286,10.1728389 2.19433184,8.12891404 3.01464844,6.5703125 C4.57324998,3.60350079 7.34177698,2.12011719 11.3203125,2.12011719 C14.4648595,2.12011719 16.9667876,2.9916905 18.8261719,4.73486328 C20.6855562,6.47803606 21.6152344,8.78514189 21.6152344,11.65625 C21.6152344,13.8574329 20.9589909,15.8124915 19.6464844,17.5214844 C18.7851519,18.6562557 17.370127,19.9208915 15.4013672,21.3154297 L13.0634766,22.9765625 C11.6005786,24.0156302 10.5991238,24.7675758 10.059082,25.2324219 C9.51904027,25.6972679 9.06445497,26.2373016 8.6953125,26.8525391 L21.6767578,26.8525391 L21.6767578,32 L1.3125,32 Z M30.6386719,17.4189453 C30.6386719,20.8369312 30.9189425,23.4516511 31.4794922,25.2631836 C32.0400419,27.0747161 33.1884679,27.9804688 34.9248047,27.9804688 C36.6611415,27.9804688 37.7993137,27.0747161 38.3393555,25.2631836 C38.8793972,23.4516511 39.1494141,20.8369312 39.1494141,17.4189453 C39.1494141,13.8368962 38.8793972,11.1845789 38.3393555,9.46191406 C37.7993137,7.7392492 36.6611415,6.87792969 34.9248047,6.87792969 C33.1884679,6.87792969 32.0400419,7.7392492 31.4794922,9.46191406 C30.9189425,11.1845789 30.6386719,13.8368962 30.6386719,17.4189453 Z M34.9248047,2.05859375 C38.711933,2.05859375 41.3676682,3.39158823 42.8920898,6.05761719 C44.4165115,8.72364614 45.1787109,12.5107176 45.1787109,17.4189453 C45.1787109,22.327173 44.4165115,26.1074086 42.8920898,28.7597656 C41.3676682,31.4121226 38.711933,32.7382812 34.9248047,32.7382812 C31.1376764,32.7382812 28.4819412,31.4121226 26.9575195,28.7597656 C25.4330978,26.1074086 24.6708984,22.327173 24.6708984,17.4189453 C24.6708984,12.5107176 25.4330978,8.72364614 26.9575195,6.05761719 C28.4819412,3.39158823 31.1376764,2.05859375 34.9248047,2.05859375 Z M49.6289062,11.4921875 L49.6289062,7.51367188 C51.4746186,7.43164021 52.7665979,7.30859457 53.5048828,7.14453125 C54.6806699,6.88476433 55.6376916,6.36523827 56.3759766,5.5859375 C56.8818385,5.05273171 57.2646471,4.34180132 57.5244141,3.453125 C57.6748054,2.91991921 57.75,2.5234388 57.75,2.26367188 L62.6103516,2.26367188 L62.6103516,32 L56.6220703,32 L56.6220703,11.4921875 L49.6289062,11.4921875 Z M77.2529297,23.3662109 C77.2529297,24.8291089 77.6323204,25.9638632 78.3911133,26.7705078 C79.1499061,27.5771525 80.1992121,27.9804688 81.5390625,27.9804688 C82.8789129,27.9804688 83.9282189,27.5771525 84.6870117,26.7705078 C85.4458046,25.9638632 85.8251953,24.8291089 85.8251953,23.3662109 C85.8251953,21.8486252 85.4389687,20.6967813 84.6665039,19.9106445 C83.8940391,19.1245078 82.8515691,18.7314453 81.5390625,18.7314453 C80.2265559,18.7314453 79.1840859,19.1245078 78.4116211,19.9106445 C77.6391563,20.6967813 77.2529297,21.8486252 77.2529297,23.3662109 Z M71.1826172,23.7558594 C71.1826172,22.0878823 71.5620079,20.5771552 72.3208008,19.2236328 C73.0795936,17.8701104 74.1904224,16.8515659 75.6533203,16.1679688 C74.2177663,15.2109327 73.2846701,14.1752985 72.8540039,13.0610352 C72.4233377,11.9467718 72.2080078,10.9043017 72.2080078,9.93359375 C72.2080078,7.7734267 73.0214762,5.93115997 74.6484375,4.40673828 C76.2753988,2.8823166 78.5722508,2.12011719 81.5390625,2.12011719 C84.5058742,2.12011719 86.8027262,2.8823166 88.4296875,4.40673828 C90.0566488,5.93115997 90.8701172,7.7734267 90.8701172,9.93359375 C90.8701172,10.9043017 90.6547873,11.9467718 90.2241211,13.0610352 C89.7934549,14.1752985 88.8603587,15.142574 87.4248047,15.9628906 C88.8877026,16.7832072 89.9882776,17.8701104 90.7265625,19.2236328 C91.4648474,20.5771552 91.8339844,22.0878823 91.8339844,23.7558594 C91.8339844,26.257825 90.9077241,28.3871982 89.0551758,30.144043 C87.2026275,31.9008877 84.615251,32.7792969 81.2929688,32.7792969 C77.9706865,32.7792969 75.4550867,31.9008877 73.7460938,30.144043 C72.0371008,28.3871982 71.1826172,26.257825 71.1826172,23.7558594 Z M77.7861328,10.5898438 C77.7861328,11.6699273 78.1176725,12.5517544 78.7807617,13.2353516 C79.443851,13.9189487 80.3632754,14.2607422 81.5390625,14.2607422 C82.7285216,14.2607422 83.647946,13.9189487 84.2973633,13.2353516 C84.9467806,12.5517544 85.2714844,11.6699273 85.2714844,10.5898438 C85.2714844,9.41405662 84.9467806,8.49463222 84.2973633,7.83154297 C83.647946,7.16845372 82.7285216,6.83691406 81.5390625,6.83691406 C80.3632754,6.83691406 79.443851,7.16845372 78.7807617,7.83154297 C78.1176725,8.49463222 77.7861328,9.41405662 77.7861328,10.5898438 Z M96.0585938,25.8886719 L102.272461,25.8886719 L102.272461,32 L96.0585938,32 L96.0585938,25.8886719 Z M108.014648,11.4921875 L108.014648,7.51367188 C109.860361,7.43164021 111.15234,7.30859457 111.890625,7.14453125 C113.066412,6.88476433 114.023434,6.36523827 114.761719,5.5859375 C115.267581,5.05273171 115.650389,4.34180132 115.910156,3.453125 C116.060548,2.91991921 116.135742,2.5234388 116.135742,2.26367188 L120.996094,2.26367188 L120.996094,32 L115.007812,32 L115.007812,11.4921875 L108.014648,11.4921875 Z M135.741211,17.4189453 C135.741211,20.8369312 136.021482,23.4516511 136.582031,25.2631836 C137.142581,27.0747161 138.291007,27.9804688 140.027344,27.9804688 C141.763681,27.9804688 142.901853,27.0747161 143.441895,25.2631836 C143.981936,23.4516511 144.251953,20.8369312 144.251953,17.4189453 C144.251953,13.8368962 143.981936,11.1845789 143.441895,9.46191406 C142.901853,7.7392492 141.763681,6.87792969 140.027344,6.87792969 C138.291007,6.87792969 137.142581,7.7392492 136.582031,9.46191406 C136.021482,11.1845789 135.741211,13.8368962 135.741211,17.4189453 Z M140.027344,2.05859375 C143.814472,2.05859375 146.470207,3.39158823 147.994629,6.05761719 C149.519051,8.72364614 150.28125,12.5107176 150.28125,17.4189453 C150.28125,22.327173 149.519051,26.1074086 147.994629,28.7597656 C146.470207,31.4121226 143.814472,32.7382812 140.027344,32.7382812 C136.240215,32.7382812 133.58448,31.4121226 132.060059,28.7597656 C130.535637,26.1074086 129.773438,22.327173 129.773438,17.4189453 C129.773438,12.5107176 130.535637,8.72364614 132.060059,6.05761719 C133.58448,3.39158823 136.240215,2.05859375 140.027344,2.05859375 Z M154.444336,25.8886719 L160.658203,25.8886719 L160.658203,32 L154.444336,32 L154.444336,25.8886719 Z M185.452148,25.6015625 L182.088867,25.6015625 L182.088867,32 L176.367188,32 L176.367188,25.6015625 L164.595703,25.6015625 L164.595703,20.4951172 L175.526367,2.44824219 L182.088867,2.44824219 L182.088867,21.0283203 L185.452148,21.0283203 L185.452148,25.6015625 Z M176.367188,21.0283203 L176.367188,8.19042969 L168.922852,21.0283203 L176.367188,21.0283203 Z M223.678711,1.77148438 L223.678711,7.12402344 L214.634766,7.12402344 L214.634766,32 L208.277344,32 L208.277344,7.12402344 L199.192383,7.12402344 L199.192383,1.77148438 L223.678711,1.77148438 Z M239.223633,9.07226562 C240.604499,9.07226562 241.858881,9.31152104 242.986816,9.79003906 C244.114752,10.2685571 245.041012,10.9999951 245.765625,11.984375 C246.380862,12.8183635 246.756835,13.6762651 246.893555,14.5581055 C247.030274,15.4399458 247.098633,16.8788963 247.098633,18.875 L247.098633,32 L241.130859,32 L241.130859,18.4033203 C241.130859,17.2001893 240.925783,16.2294959 240.515625,15.4912109 C239.982419,14.4521432 238.970711,13.9326172 237.480469,13.9326172 C235.935539,13.9326172 234.763188,14.4487253 233.963379,15.480957 C233.16357,16.5131888 232.763672,17.9863186 232.763672,19.9003906 L232.763672,32 L226.939453,32 L226.939453,1.87402344 L232.763672,1.87402344 L232.763672,12.5585938 C233.611332,11.2597591 234.59228,10.3540065 235.706543,9.84130859 C236.820806,9.32861072 237.993158,9.07226562 239.223633,9.07226562 Z M258.37793,9.64648438 L258.37793,23.1201172 C258.37793,24.3916079 258.528319,25.3486296 258.829102,25.9912109 C259.362307,27.1259822 260.408195,27.6933594 261.966797,27.6933594 C263.962901,27.6933594 265.330074,26.8867268 266.068359,25.2734375 C266.451174,24.3984331 266.642578,23.2431712 266.642578,21.8076172 L266.642578,9.64648438 L272.569336,9.64648438 L272.569336,32 L266.888672,32 L266.888672,28.8417969 C266.833984,28.9101566 266.697267,29.1152327 266.478516,29.4570312 C266.259765,29.7988298 266.000002,30.0996081 265.699219,30.359375 C264.783199,31.1796916 263.897953,31.7402329 263.043457,32.0410156 C262.188961,32.3417984 261.187506,32.4921875 260.039062,32.4921875 C256.730452,32.4921875 254.501959,31.3027463 253.353516,28.9238281 C252.710934,27.6113216 252.389648,25.6767706 252.389648,23.1201172 L252.389648,9.64648438 L258.37793,9.64648438 Z" id="2018.10.4-Thu"></path>
            </g>
        </g>
    </g>
</svg>
